{
.appVersion = "3343";
.formatVersion = 3;
axes = (
{
name = Grow;
tag = GROW;
}
);
date = "2023-03-03 03:35:47 +0000";
familyName = Fungus;
fontMaster = (
{
axesValues = (
0
);
iconName = Light_SemiCondensed;
id = "5FFCF0B5-D422-4BE5-8BC5-6DA1EDB7DC6B";
metricValues = (
{
pos = 2020;
},
{
pos = 1500;
},
{
pos = 1000;
},
{
},
{
pos = -520;
},
{
}
);
name = Original;
},
{
axesValues = (
100
);
iconName = Bold_Extended;
id = "EE4C669A-5906-4A8E-97F5-76C9C8877141";
metricValues = (
{
pos = 2020;
},
{
pos = 1500;
},
{
pos = 1000;
},
{
},
{
pos = -520;
},
{
}
);
name = Grown;
}
);
glyphs = (
{
glyphname = A;
lastChange = "2023-03-10 18:44:40 +0000";
layers = (
{
layerId = "5FFCF0B5-D422-4BE5-8BC5-6DA1EDB7DC6B";
shapes = (
{
closed = 1;
nodes = (
(123,0,l),
(329,488,l),
(1145,488,l),
(1352,0,l),
(1400,0,l),
(766,1500,l),
(709,1500,l),
(75,0,l)
);
},
{
closed = 1;
nodes = (
(85,4,o),
(144,65,o),
(144,65,cs),
(144,65,o),
(182,239,o),
(182,239,cs),
(182,239,o),
(119,89,o),
(119,89,cs),
(119,89,o),
(85,4,o),
(85,4,cs)
);
},
{
closed = 1;
nodes = (
(123,8,o),
(198,189,o),
(198,189,cs),
(198,189,o),
(241,297,o),
(241,297,cs),
(241,297,o),
(221,254,o),
(174,169,cs),
(127,81,o),
(123,8,o),
(123,8,cs)
);
},
{
closed = 1;
nodes = (
(148,149,o),
(170,210,o),
(209,286,cs),
(248,362,o),
(264,431,o),
(264,431,cs),
(264,431,o),
(214,312,o),
(214,312,cs),
(214,312,o),
(148,149,o),
(148,149,cs)
);
},
{
closed = 1;
nodes = (
(737,1454,l),
(1128,530,l),
(347,530,l)
);
},
{
closed = 1;
nodes = (
(250,384,o),
(276,440,o),
(315,516,cs),
(354,592,o),
(364,669,o),
(364,669,cs),
(364,669,o),
(310,540,o),
(310,540,cs),
(310,540,o),
(250,384,o),
(250,384,cs)
);
},
{
closed = 1;
nodes = (
(212,239,o),
(264,351,o),
(264,351,cs),
(264,351,o),
(331,502,o),
(331,502,cs),
(331,502,o),
(273,468,o),
(245,395,cs),
(216,320,o),
(212,239,o),
(212,239,cs)
);
}
);
width = 1475;
},
{
layerId = "EE4C669A-5906-4A8E-97F5-76C9C8877141";
shapes = (
{
closed = 1;
nodes = (
(123,0,l),
(329,488,l),
(1145,488,l),
(1352,0,l),
(1400,0,l),
(766,1500,l),
(709,1500,l),
(75,0,l)
);
},
{
closed = 1;
nodes = (
(16,-34,o),
(140,-31,o),
(187,49,cs),
(233,129,o),
(217,225,o),
(152,263,cs),
(85,301,o),
(-6,267,o),
(-52,188,cs),
(-99,107,o),
(-87,33,o),
(-24,-8,cs)
);
},
{
closed = 1;
nodes = (
(283,-66,o),
(410,-26,o),
(457,61,cs),
(504,147,o),
(457,250,o),
(350,287,cs),
(243,326,o),
(221,254,o),
(174,169,cs),
(127,81,o),
(69,12,o),
(177,-27,cs)
);
},
{
closed = 1;
nodes = (
(147,137,o),
(170,210,o),
(209,286,cs),
(248,362,o),
(288,415,o),
(212,454,cs),
(136,493,o),
(42,461,o),
(3,386,cs),
(-36,310,o),
(-5,215,o),
(70,176,cs)
);
},
{
closed = 1;
nodes = (
(737,1454,l),
(1128,530,l),
(347,530,l)
);
},
{
closed = 1;
nodes = (
(253,367,o),
(276,440,o),
(315,516,cs),
(354,592,o),
(394,645,o),
(318,684,cs),
(242,723,o),
(148,691,o),
(109,616,cs),
(70,540,o),
(101,445,o),
(176,406,cs)
);
},
{
closed = 1;
nodes = (
(310,195,o),
(386,229,o),
(415,303,cs),
(443,377,o),
(415,464,o),
(350,497,cs),
(286,529,o),
(273,468,o),
(245,395,cs),
(216,320,o),
(181,262,o),
(246,228,cs)
);
}
);
width = 1475;
}
);
unicode = (65,97);
},
{
glyphname = B;
lastChange = "2023-03-10 18:44:40 +0000";
layers = (
{
layerId = "5FFCF0B5-D422-4BE5-8BC5-6DA1EDB7DC6B";
shapes = (
{
closed = 1;
nodes = (
(698,0,ls),
(838,0,o),
(1052,102,o),
(1172,284,o),
(1172,403,qs),
(1172,555,o),
(992,760,o),
(843,785,q),
(961,814,o),
(1107,1007,o),
(1107,1140,qs),
(1107,1305,o),
(883,1500,o),
(693,1500,qs),
(185,1500,l),
(185,0,l)
);
},
{
closed = 1;
nodes = (
(229,762,l),
(703,762,ls),
(830,762,o),
(1021,675,o),
(1127,518,o),
(1127,413,qs),
(1127,305,o),
(1017,137,o),
(823,42,o),
(698,42,qs),
(229,42,l)
);
},
{
closed = 1;
nodes = (
(215,1359,o),
(229,1480,o),
(229,1480,cs),
(229,1480,o),
(233,1491,o),
(218,1489,cs),
(172,1482,o),
(215,1359,o),
(215,1359,cs)
);
},
{
closed = 1;
nodes = (
(229,1458,l),
(686,1458,ls),
(859,1458,o),
(1062,1285,o),
(1062,1136,qs),
(1062,988,o),
(864,804,o),
(703,804,qs),
(229,804,l)
);
},
{
closed = 1;
nodes = (
(350,1462,o),
(380,1473,o),
(380,1473,cs),
(380,1473,o),
(365,1484,o),
(347,1482,cs),
(327,1478,o),
(318,1472,o),
(318,1472,cs),
(318,1472,o),
(350,1462,o),
(350,1462,cs)
);
},
{
closed = 1;
nodes = (
(454,1461,o),
(509,1472,o),
(509,1475,cs),
(509,1475,o),
(485,1481,o),
(460,1481,cs),
(433,1481,o),
(416,1475,o),
(416,1475,cs),
(416,1475,o),
(454,1461,o),
(454,1461,cs)
);
},
{
closed = 1;
nodes = (
(844,750,o),
(919,731,o),
(919,731,cs),
(919,731,o),
(900,771,o),
(839,771,cs),
(788,771,o),
(782,771,o),
(782,771,cs),
(782,771,o),
(844,750,o),
(844,750,cs)
);
},
{
closed = 1;
nodes = (
(992,687,o),
(1035,677,o),
(1035,677,cs),
(1035,677,o),
(992,724,o),
(961,719,cs),
(934,714,o),
(963,708,o),
(963,708,cs),
(963,708,o),
(992,687,o),
(992,687,cs)
);
},
{
closed = 1;
nodes = (
(974,67,o),
(1007,88,o),
(1007,90,cs),
(1007,90,o),
(1011,95,o),
(1007,95,cs),
(976,95,o),
(945,62,o),
(945,61,cs),
(945,61,o),
(973,67,o),
(973,67,cs)
);
},
{
closed = 1;
nodes = (
(990,90,o),
(1034,113,o),
(1034,113,cs),
(1034,113,o),
(1096,174,o),
(1096,174,cs),
(1096,174,o),
(1070,183,o),
(1037,151,cs),
(1000,110,o),
(990,90,o),
(990,90,cs)
);
},
{
closed = 1;
nodes = (
(864,38,o),
(860,28,o),
(860,28,cs),
(860,28,o),
(922,42,o),
(922,42,cs),
(922,42,o),
(971,59,o),
(951,74,cs),
(927,91,o),
(898,84,o),
(879,59,cs)
);
}
);
width = 1307;
},
{
layerId = "EE4C669A-5906-4A8E-97F5-76C9C8877141";
shapes = (
{
closed = 1;
nodes = (
(698,0,ls),
(838,0,o),
(1052,102,o),
(1172,284,o),
(1172,403,qs),
(1172,555,o),
(992,760,o),
(843,785,q),
(961,814,o),
(1107,1007,o),
(1107,1140,qs),
(1107,1305,o),
(883,1500,o),
(693,1500,qs),
(185,1500,l),
(185,0,l)
);
},
{
closed = 1;
nodes = (
(229,762,l),
(703,762,ls),
(830,762,o),
(1021,675,o),
(1127,518,o),
(1127,413,qs),
(1127,305,o),
(1017,137,o),
(823,42,o),
(698,42,qs),
(229,42,l)
);
},
{
closed = 1;
nodes = (
(275,1362,o),
(318,1365,o),
(311,1403,cs),
(304,1432,o),
(267,1487,o),
(252,1485,cs),
(206,1478,o),
(168,1343,o),
(260,1359,cs)
);
},
{
closed = 1;
nodes = (
(229,1458,l),
(686,1458,ls),
(859,1458,o),
(1062,1285,o),
(1062,1136,qs),
(1062,988,o),
(864,804,o),
(703,804,qs),
(229,804,l)
);
},
{
closed = 1;
nodes = (
(390,1389,o),
(392,1404,o),
(389,1422,cs),
(387,1437,o),
(365,1484,o),
(347,1482,cs),
(327,1478,o),
(316,1425,o),
(318,1411,cs),
(321,1392,o),
(334,1389,o),
(350,1389,cs)
);
},
{
closed = 1;
nodes = (
(499,1348,o),
(504,1367,o),
(504,1393,cs),
(504,1413,o),
(485,1481,o),
(460,1481,cs),
(433,1481,o),
(407,1412,o),
(407,1393,cs),
(407,1367,o),
(423,1361,o),
(445,1357,cs)
);
},
{
closed = 1;
nodes = (
(905,563,o),
(913,635,o),
(913,663,cs),
(913,674,o),
(892,754,o),
(831,754,cs),
(780,754,o),
(736,682,o),
(729,663,cs),
(721,625,o),
(761,577,o),
(801,572,cs)
);
},
{
closed = 1;
nodes = (
(1028,543,o),
(1032,617,o),
(1018,639,cs),
(1008,654,o),
(992,724,o),
(961,719,cs),
(934,714,o),
(922,643,o),
(923,623,cs),
(923,587,o),
(951,544,o),
(974,544,cs)
);
},
{
closed = 1;
nodes = (
(1035,-4,o),
(1058,16,o),
(1058,45,cs),
(1058,70,o),
(1035,91,o),
(1009,91,cs),
(978,91,o),
(955,70,o),
(955,45,cs),
(955,16,o),
(978,-4,o),
(1009,-4,cs)
);
},
{
closed = 1;
nodes = (
(1077,-25,o),
(1133,-29,o),
(1171,11,cs),
(1204,45,o),
(1201,105,o),
(1168,139,cs),
(1127,181,o),
(1070,183,o),
(1037,151,cs),
(1000,110,o),
(1004,53,o),
(1044,11,cs)
);
},
{
closed = 1;
nodes = (
(864,38,o),
(867,8,o),
(890,-9,cs),
(910,-24,o),
(941,-18,o),
(956,3,cs),
(974,28,o),
(971,59,o),
(951,74,cs),
(927,91,o),
(898,84,o),
(879,59,cs)
);
}
);
width = 1307;
}
);
unicode = (66,98);
},
{
glyphname = C;
lastChange = "2023-03-10 18:44:40 +0000";
layers = (
{
layerId = "5FFCF0B5-D422-4BE5-8BC5-6DA1EDB7DC6B";
shapes = (
{
closed = 1;
nodes = (
(1302,126,o),
(1034,12,o),
(875,12,qs),
(718,12,o),
(453,122,o),
(258,321,o),
(150,590,o),
(150,750,qs),
(150,910,o),
(258,1179,o),
(453,1378,o),
(718,1488,o),
(875,1488,qs),
(1034,1488,o),
(1302,1375,o),
(1399,1274,q),
(1430,1306,l),
(1327,1411,o),
(1044,1530,o),
(876,1530,qs),
(709,1530,o),
(427,1414,o),
(219,1204,o),
(105,919,o),
(105,750,qs),
(105,581,o),
(219,296,o),
(427,86,o),
(709,-30,o),
(876,-30,qs),
(1044,-30,o),
(1328,89,o),
(1430,195,q),
(1399,226,l)
);
},
{
closed = 1;
nodes = (
(523,1408,o),
(581,1440,o),
(556,1444,cs),
(532,1448,o),
(453,1394,o),
(453,1394,cs),
(453,1394,o),
(519,1408,o),
(519,1408,cs)
);
},
{
closed = 1;
nodes = (
(352,1283,o),
(385,1314,o),
(385,1314,cs),
(385,1314,o),
(406,1336,o),
(406,1336,cs),
(382,1352,o),
(315,1260,o),
(315,1260,cs),
(315,1260,o),
(352,1283,o),
(352,1283,cs)
);
},
{
closed = 1;
nodes = (
(280,1201,o),
(297,1221,o),
(297,1221,cs),
(297,1221,o),
(325,1229,o),
(281,1229,cs),
(241,1229,o),
(200,1123,o),
(200,1123,cs),
(200,1123,o),
(280,1201,o),
(280,1201,cs)
);
},
{
closed = 1;
nodes = (
(877,1494,o),
(937,1494,o),
(937,1494,cs),
(937,1494,o),
(910,1497,o),
(877,1502,cs),
(848,1507,o),
(802,1500,o),
(802,1500,cs),
(802,1500,o),
(877,1494,o),
(877,1494,cs)
);
},
{
closed = 1;
nodes = (
(715,1472,o),
(772,1487,o),
(772,1487,cs),
(772,1487,o),
(751,1488,o),
(718,1493,cs),
(689,1498,o),
(655,1465,o),
(655,1465,cs),
(655,1465,o),
(713,1475,o),
(713,1475,cs)
);
}
);
width = 1565;
},
{
layerId = "EE4C669A-5906-4A8E-97F5-76C9C8877141";
shapes = (
{
closed = 1;
nodes = (
(1302,126,o),
(1034,12,o),
(875,12,qs),
(718,12,o),
(453,122,o),
(258,321,o),
(150,590,o),
(150,750,qs),
(150,910,o),
(258,1179,o),
(453,1378,o),
(718,1488,o),
(875,1488,qs),
(1034,1488,o),
(1302,1375,o),
(1399,1274,q),
(1430,1306,l),
(1327,1411,o),
(1044,1530,o),
(876,1530,qs),
(709,1530,o),
(427,1414,o),
(219,1204,o),
(105,919,o),
(105,750,qs),
(105,581,o),
(219,296,o),
(427,86,o),
(709,-30,o),
(876,-30,qs),
(1044,-30,o),
(1328,89,o),
(1430,195,q),
(1399,226,l)
);
},
{
closed = 1;
nodes = (
(705,1209,o),
(644,1427,o),
(569,1439,cs),
(545,1442,o),
(485,1353,o),
(474,1306,cs),
(462,1244,o),
(532,1240,o),
(556,1235,cs)
);
},
{
closed = 1;
nodes = (
(427,1185,o),
(448,1190,o),
(453,1221,cs),
(456,1244,o),
(439,1329,o),
(406,1336,cs),
(377,1339,o),
(341,1263,o),
(338,1239,cs),
(333,1210,o),
(337,1185,o),
(401,1185,cs)
);
},
{
closed = 1;
nodes = (
(341,996,o),
(367,1006,o),
(367,1048,cs),
(367,1079,o),
(325,1190,o),
(281,1190,cs),
(241,1190,o),
(210,1080,o),
(210,1048,cs),
(210,1006,o),
(218,975,o),
(306,989,cs)
);
},
{
closed = 1;
nodes = (
(904,1314,o),
(926,1346,o),
(931,1377,cs),
(934,1400,o),
(910,1497,o),
(877,1502,cs),
(848,1507,o),
(813,1430,o),
(809,1407,cs),
(804,1378,o),
(814,1314,o),
(878,1314,cs)
);
},
{
closed = 1;
nodes = (
(761,1283,o),
(798,1302,o),
(793,1362,cs),
(791,1385,o),
(772,1482,o),
(739,1487,cs),
(710,1492,o),
(675,1432,o),
(666,1381,cs),
(661,1352,o),
(671,1283,o),
(735,1283,cs)
);
}
);
width = 1565;
}
);
unicode = (67,99);
},
{
glyphname = D;
lastChange = "2023-03-10 18:44:40 +0000";
layers = (
{
layerId = "5FFCF0B5-D422-4BE5-8BC5-6DA1EDB7DC6B";
shapes = (
{
closed = 1;
nodes = (
(838,0,o),
(1233,177,o),
(1442,513,o),
(1442,750,qs),
(1442,988,o),
(1233,1323,o),
(838,1500,o),
(558,1500,qs),
(185,1500,l),
(185,0,l),
(558,0,ls)
);
},
{
closed = 1;
nodes = (
(563,1458,ls),
(826,1458,o),
(1199,1289,o),
(1397,973,o),
(1397,750,qs),
(1397,528,o),
(1199,211,o),
(826,42,o),
(563,42,qs),
(229,42,l),
(229,1458,l)
);
},
{
closed = 1;
nodes = (
(191,1493,o),
(206,1472,o),
(213,1472,cs),
(280,1472,o),
(339,1477,o),
(339,1481,cs),
(339,1483,o),
(232,1495,o),
(229,1495,cs),
(226,1495,o),
(191,1495,o),
(191,1493,cs)
);
},
{
closed = 1;
nodes = (
(216,1198,o),
(215,1275,o),
(214,1360,cs),
(215,1445,o),
(196,1493,o),
(196,1493,cs),
(196,1493,o),
(196,1355,o),
(196,1355,cs),
(196,1355,o),
(216,1198,o),
(216,1198,cs)
);
},
{
closed = 1;
nodes = (
(218,975,o),
(224,1166,o),
(224,1166,cs),
(224,1166,o),
(223,1476,o),
(220,1476,cs),
(217,1476,o),
(206,1377,o),
(202,1299,c),
(203,981,l)
);
},
{
closed = 1;
nodes = (
(304,1510,o),
(231,1485,o),
(229,1482,cs),
(226,1477,o),
(224,1462,o),
(224,1462,cs),
(224,1462,o),
(302,1461,o),
(302,1461,cs),
(302,1461,o),
(390,1465,o),
(348,1487,cs)
);
},
{
closed = 1;
nodes = (
(193,941,o),
(202,945,o),
(207,1037,cs),
(213,1130,o),
(203,1252,o),
(202,1253,cs),
(202,1253,o),
(192,1096,o),
(192,1096,cs),
(192,1096,o),
(193,941,o),
(193,941,cs)
);
},
{
closed = 1;
nodes = (
(195,871,l),
(191,949,o),
(187,1042,o),
(187,1042,cs),
(187,1042,o),
(188,732,o),
(188,732,cs),
(188,732,o),
(194,553,o),
(194,553,c)
);
}
);
width = 1547;
},
{
layerId = "EE4C669A-5906-4A8E-97F5-76C9C8877141";
shapes = (
{
closed = 1;
nodes = (
(838,0,o),
(1233,177,o),
(1442,513,o),
(1442,750,qs),
(1442,988,o),
(1233,1323,o),
(838,1500,o),
(558,1500,qs),
(185,1500,l),
(185,0,l),
(558,0,ls)
);
},
{
closed = 1;
nodes = (
(563,1458,ls),
(826,1458,o),
(1199,1289,o),
(1397,973,o),
(1397,750,qs),
(1397,528,o),
(1199,211,o),
(826,42,o),
(563,42,qs),
(229,42,l),
(229,1458,l)
);
},
{
closed = 1;
nodes = (
(87,1461,o),
(146,1472,o),
(213,1472,cs),
(281,1471,o),
(332,1462,o),
(332,1536,cs),
(333,1610,o),
(276,1669,o),
(210,1670,cs),
(143,1670,o),
(87,1609,o),
(86,1536,cs)
);
},
{
closed = 1;
nodes = (
(227,1199,o),
(215,1275,o),
(214,1360,cs),
(215,1445,o),
(226,1511,o),
(141,1511,cs),
(56,1511,o),
(-14,1440,o),
(-15,1355,cs),
(-14,1270,o),
(57,1199,o),
(141,1198,cs)
);
},
{
closed = 1;
nodes = (
(353,915,o),
(415,1040,o),
(401,1157,cs),
(392,1236,o),
(327,1469,o),
(262,1472,cs),
(189,1475,o),
(206,1377,o),
(202,1299,c),
(203,981,l)
);
},
{
closed = 1;
nodes = (
(304,1510,o),
(295,1471,o),
(275,1430,cs),
(254,1390,o),
(234,1362,o),
(277,1339,cs),
(319,1316,o),
(369,1332,o),
(389,1371,cs),
(409,1412,o),
(390,1465,o),
(348,1487,cs)
);
},
{
closed = 1;
nodes = (
(150,928,o),
(202,945,o),
(207,1037,cs),
(213,1130,o),
(211,1251,o),
(136,1254,cs),
(59,1258,o),
(-7,1187,o),
(-12,1096,cs),
(-17,1002,o),
(27,941,o),
(102,933,cs)
);
},
{
closed = 1;
nodes = (
(195,871,l),
(191,949,o),
(208,1047,o),
(135,1044,cs),
(70,1041,o),
(5,808,o),
(-4,729,cs),
(-18,612,o),
(44,487,o),
(194,553,c)
);
}
);
width = 1547;
}
);
unicode = (68,100);
},
{
glyphname = E;
lastChange = "2023-03-10 18:44:40 +0000";
layers = (
{
layerId = "5FFCF0B5-D422-4BE5-8BC5-6DA1EDB7DC6B";
shapes = (
{
closed = 1;
nodes = (
(1065,42,l),
(229,42,l),
(229,748,l),
(1014,748,l),
(1014,790,l),
(229,790,l),
(229,1458,l),
(1055,1458,l),
(1055,1500,l),
(185,1500,l),
(185,0,l),
(1065,0,l)
);
},
{
closed = 1;
nodes = (
(511,755,o),
(581,756,o),
(534,763,cs),
(519,765,o),
(470,766,o),
(469,761,cs),
(468,757,o),
(504,755,o),
(507,755,cs)
);
},
{
closed = 1;
nodes = (
(942,751,o),
(985,749,o),
(984,753,cs),
(983,758,o),
(946,760,o),
(917,757,cs),
(884,750,o),
(863,757,o),
(863,753,cs),
(863,749,o),
(928,751,o),
(934,751,cs)
);
},
{
closed = 1;
nodes = (
(372,753,o),
(422,751,o),
(419,759,cs),
(416,768,o),
(395,767,o),
(351,767,cs),
(311,767,o),
(281,769,o),
(281,763,cs),
(281,756,o),
(356,755,o),
(364,754,cs)
);
},
{
closed = 1;
nodes = (
(786,752,o),
(833,748,o),
(833,753,cs),
(833,757,o),
(807,769,o),
(784,765,cs),
(759,761,o),
(742,765,o),
(742,761,cs),
(742,756,o),
(776,752,o),
(780,752,cs)
);
},
{
closed = 1;
nodes = (
(673,753,o),
(715,748,o),
(716,754,cs),
(717,761,o),
(704,757,o),
(671,762,cs),
(642,767,o),
(617,765,o),
(613,763,cs),
(610,761,o),
(661,753,o),
(667,753,cs)
);
}
);
width = 1240;
},
{
layerId = "EE4C669A-5906-4A8E-97F5-76C9C8877141";
shapes = (
{
closed = 1;
nodes = (
(1065,42,l),
(229,42,l),
(229,748,l),
(1014,748,l),
(1014,790,l),
(229,790,l),
(229,1458,l),
(1055,1458,l),
(1055,1500,l),
(185,1500,l),
(185,0,l),
(1065,0,l)
);
},
{
closed = 1;
nodes = (
(589,557,o),
(581,756,o),
(534,763,cs),
(519,765,o),
(488,708,o),
(475,681,cs),
(437,602,o),
(482,576,o),
(497,573,cs)
);
},
{
closed = 1;
nodes = (
(986,573,o),
(990,631,o),
(985,660,cs),
(982,684,o),
(946,760,o),
(917,757,cs),
(884,750,o),
(870,665,o),
(870,642,cs),
(870,598,o),
(896,573,o),
(922,573,cs)
);
},
{
closed = 1;
nodes = (
(415,480,o),
(443,522,o),
(437,578,cs),
(433,619,o),
(395,767,o),
(351,767,cs),
(311,767,o),
(281,633,o),
(280,581,cs),
(279,513,o),
(311,461,o),
(376,473,cs)
);
},
{
closed = 1;
nodes = (
(833,619,o),
(841,669,o),
(837,691,cs),
(834,709,o),
(807,769,o),
(784,765,cs),
(759,761,o),
(740,686,o),
(742,668,cs),
(746,644,o),
(763,619,o),
(784,619,cs)
);
},
{
closed = 1;
nodes = (
(693,558,o),
(730,577,o),
(725,637,cs),
(723,660,o),
(704,757,o),
(671,762,cs),
(642,767,o),
(607,707,o),
(598,656,cs),
(593,627,o),
(603,558,o),
(667,558,cs)
);
}
);
width = 1240;
}
);
unicode = (69,101);
},
{
glyphname = F;
lastChange = "2023-03-10 18:44:40 +0000";
layers = (
{
layerId = "5FFCF0B5-D422-4BE5-8BC5-6DA1EDB7DC6B";
shapes = (
{
closed = 1;
nodes = (
(229,748,l),
(1014,748,l),
(1014,790,l),
(229,790,l),
(229,1458,l),
(1055,1458,l),
(1055,1500,l),
(185,1500,l),
(185,0,l),
(229,0,l)
);
},
{
closed = 1;
nodes = (
(1016,1464,o),
(1055,1457,o),
(1052,1462,cs),
(1048,1469,o),
(1025,1466,o),
(1010,1464,cs),
(963,1457,o),
(1005,1458,o),
(1011,1461,cs)
);
},
{
closed = 1;
nodes = (
(330,1461,o),
(377,1458,o),
(378,1463,cs),
(379,1467,o),
(354,1466,o),
(319,1474,cs),
(288,1477,o),
(252,1473,o),
(252,1470,cs),
(252,1467,o),
(319,1461,o),
(324,1461,cs)
);
},
{
closed = 1;
nodes = (
(890,1461,o),
(963,1459,o),
(963,1464,cs),
(963,1471,o),
(941,1466,o),
(901,1466,cs),
(857,1466,o),
(811,1471,o),
(811,1466,cs),
(811,1462,o),
(876,1461,o),
(882,1461,cs)
);
},
{
closed = 1;
nodes = (
(608,1461,o),
(667,1457,o),
(668,1462,cs),
(669,1467,o),
(641,1464,o),
(611,1469,cs),
(584,1474,o),
(546,1469,o),
(544,1465,cs),
(542,1460,o),
(598,1461,o),
(603,1461,cs)
);
},
{
closed = 1;
nodes = (
(459,1461,o),
(527,1456,o),
(525,1463,cs),
(523,1469,o),
(480,1478,o),
(446,1472,cs),
(408,1466,o),
(399,1470,o),
(396,1463,cs),
(394,1457,o),
(444,1461,o),
(453,1461,cs)
);
}
);
width = 1230;
},
{
layerId = "EE4C669A-5906-4A8E-97F5-76C9C8877141";
shapes = (
{
closed = 1;
nodes = (
(229,748,l),
(1014,748,l),
(1014,790,l),
(229,790,l),
(229,1458,l),
(1055,1458,l),
(1055,1500,l),
(185,1500,l),
(185,0,l),
(229,0,l)
);
},
{
closed = 1;
nodes = (
(1062,1277,o),
(1107,1303,o),
(1069,1382,cs),
(1056,1409,o),
(1025,1466,o),
(1010,1464,cs),
(963,1457,o),
(955,1258,o),
(1047,1274,cs)
);
},
{
closed = 1;
nodes = (
(341,1258,o),
(369,1288,o),
(369,1339,cs),
(369,1366,o),
(354,1466,o),
(319,1474,cs),
(288,1477,o),
(249,1388,o),
(246,1360,cs),
(241,1326,o),
(245,1258,o),
(313,1258,cs)
);
},
{
closed = 1;
nodes = (
(941,1215,o),
(973,1258,o),
(972,1314,cs),
(971,1356,o),
(941,1466,o),
(901,1466,cs),
(857,1466,o),
(819,1345,o),
(815,1311,cs),
(809,1265,o),
(837,1231,o),
(876,1225,cs)
);
},
{
closed = 1;
nodes = (
(641,1286,o),
(658,1319,o),
(662,1348,cs),
(668,1387,o),
(641,1464,o),
(611,1469,cs),
(584,1474,o),
(551,1399,o),
(548,1376,cs),
(543,1349,o),
(553,1286,o),
(611,1286,cs)
);
},
{
closed = 1;
nodes = (
(525,1233,o),
(539,1305,o),
(531,1348,cs),
(520,1408,o),
(480,1478,o),
(446,1472,cs),
(408,1466,o),
(386,1352,o),
(384,1326,cs),
(378,1256,o),
(421,1233,o),
(451,1233,cs)
);
}
);
width = 1230;
}
);
unicode = (70,102);
},
{
glyphname = G;
lastChange = "2023-03-10 18:44:40 +0000";
layers = (
{
layerId = "5FFCF0B5-D422-4BE5-8BC5-6DA1EDB7DC6B";
shapes = (
{
closed = 1;
nodes = (
(1309,1423,o),
(1033,1530,o),
(876,1530,qs),
(709,1530,o),
(427,1413,o),
(219,1202,o),
(105,915,o),
(105,745,qs),
(105,577,o),
(216,294,o),
(417,85,o),
(691,-30,o),
(853,-30,qs),
(1015,-30,o),
(1286,85,o),
(1484,294,o),
(1593,579,o),
(1593,750,q),
(1592,763,l),
(887,763,l),
(887,721,l),
(1107,721,o),
(1327,721,o),
(1547,721,c),
(1547,568,o),
(1439,309,o),
(1246,118,o),
(991,12,o),
(844,12,qs),
(694,12,o),
(441,122,o),
(254,320,o),
(150,588,o),
(150,746,qs),
(150,907,o),
(258,1178,o),
(453,1378,o),
(718,1488,o),
(875,1488,qs),
(1023,1488,o),
(1283,1387,o),
(1382,1291,q),
(1415,1321,l)
);
},
{
closed = 1;
nodes = (
(894,721,o),
(1015,727,o),
(1023,727,cs),
(1029,727,o),
(1208,723,o),
(1208,726,cs),
(1208,731,o),
(1117,736,o),
(1020,736,cs),
(920,734,o),
(894,739,o),
(894,730,cs)
);
},
{
closed = 1;
nodes = (
(1133,730,o),
(1189,725,o),
(1255,725,cs),
(1350,725,o),
(1370,721,o),
(1371,731,cs),
(1372,739,o),
(1321,743,o),
(1255,742,cs),
(1187,741,o),
(1135,739,o),
(1134,735,cs)
);
},
{
closed = 1;
nodes = (
(1065,759,o),
(978,760,o),
(972,760,cs),
(967,760,o),
(891,763,o),
(892,758,cs),
(893,752,o),
(906,748,o),
(961,748,cs),
(1018,749,o),
(1065,749,o),
(1065,754,cs)
);
},
{
closed = 1;
nodes = (
(1302,759,o),
(1159,760,o),
(1150,760,cs),
(1140,760,o),
(1006,755,o),
(1006,747,cs),
(1006,738,o),
(1073,744,o),
(1150,744,cs),
(1230,746,o),
(1302,744,o),
(1302,752,cs)
);
},
{
closed = 1;
nodes = (
(1414,760,o),
(1346,759,o),
(1339,760,cs),
(1331,761,o),
(1229,755,o),
(1232,750,cs),
(1235,745,o),
(1302,751,o),
(1342,751,cs),
(1383,752,o),
(1414,754,o),
(1414,757,cs)
);
},
{
closed = 1;
nodes = (
(1507,760,o),
(1431,761,o),
(1425,761,cs),
(1420,761,o),
(1355,758,o),
(1357,755,cs),
(1358,753,o),
(1415,748,o),
(1448,748,cs),
(1482,748,o),
(1507,755,o),
(1507,758,cs)
);
},
{
closed = 1;
nodes = (
(1323,738,o),
(1348,727,o),
(1437,727,cs),
(1522,727,o),
(1568,735,o),
(1565,744,cs),
(1563,751,o),
(1505,753,o),
(1439,752,cs),
(1371,751,o),
(1325,747,o),
(1324,742,cs)
);
}
);
width = 1698;
},
{
layerId = "EE4C669A-5906-4A8E-97F5-76C9C8877141";
shapes = (
{
closed = 1;
nodes = (
(1309,1423,o),
(1033,1530,o),
(876,1530,qs),
(709,1530,o),
(427,1413,o),
(219,1202,o),
(105,915,o),
(105,745,qs),
(105,577,o),
(216,294,o),
(417,85,o),
(691,-30,o),
(853,-30,qs),
(1015,-30,o),
(1286,85,o),
(1484,294,o),
(1593,579,o),
(1593,750,q),
(1592,763,l),
(887,763,l),
(887,721,l),
(1107,721,o),
(1327,721,o),
(1547,721,c),
(1547,568,o),
(1439,309,o),
(1246,118,o),
(991,12,o),
(844,12,qs),
(694,12,o),
(441,122,o),
(254,320,o),
(150,588,o),
(150,746,qs),
(150,907,o),
(258,1178,o),
(453,1378,o),
(718,1488,o),
(875,1488,qs),
(1023,1488,o),
(1283,1387,o),
(1382,1291,q),
(1415,1321,l)
);
},
{
closed = 1;
nodes = (
(837,527,o),
(922,436,o),
(1020,436,cs),
(1143,436,o),
(1228,528,o),
(1208,639,cs),
(1190,752,o),
(1117,736,o),
(1020,736,cs),
(920,734,o),
(863,753,o),
(850,638,cs)
);
},
{
closed = 1;
nodes = (
(1131,593,o),
(1196,512,o),
(1262,512,cs),
(1357,512,o),
(1396,594,o),
(1383,673,cs),
(1371,754,o),
(1321,743,o),
(1255,742,cs),
(1187,741,o),
(1149,755,o),
(1140,673,cs)
);
},
{
closed = 1;
nodes = (
(1064,856,o),
(1073,929,o),
(961,929,cs),
(817,929,o),
(803,805,o),
(808,779,cs),
(824,697,o),
(906,748,o),
(961,748,cs),
(1018,749,o),
(1049,739,o),
(1057,798,cs)
);
},
{
closed = 1;
nodes = (
(1304,889,o),
(1266,990,o),
(1150,990,cs),
(1042,990,o),
(987,914,o),
(1001,824,cs),
(1016,732,o),
(1073,744,o),
(1150,744,cs),
(1230,746,o),
(1292,726,o),
(1299,820,cs)
);
},
{
closed = 1;
nodes = (
(1416,836,o),
(1382,881,o),
(1339,892,cs),
(1272,909,o),
(1222,835,o),
(1229,791,cs),
(1237,745,o),
(1302,751,o),
(1342,751,cs),
(1383,752,o),
(1405,744,o),
(1411,791,cs)
);
},
{
closed = 1;
nodes = (
(1505,802,o),
(1451,821,o),
(1419,820,cs),
(1386,820,o),
(1350,805,o),
(1356,775,cs),
(1362,744,o),
(1415,748,o),
(1448,748,cs),
(1482,748,o),
(1505,743,o),
(1505,775,cs)
);
},
{
closed = 1;
nodes = (
(1315,603,o),
(1350,538,o),
(1439,538,cs),
(1524,538,o),
(1580,604,o),
(1568,683,cs),
(1555,764,o),
(1505,753,o),
(1439,752,cs),
(1371,751,o),
(1333,765,o),
(1324,683,cs)
);
}
);
width = 1698;
}
);
unicode = (71,103);
},
{
glyphname = H;
lastChange = "2023-03-10 18:44:40 +0000";
layers = (
{
layerId = "5FFCF0B5-D422-4BE5-8BC5-6DA1EDB7DC6B";
shapes = (
{
closed = 1;
nodes = (
(1254,720,l),
(1254,0,l),
(1298,0,l),
(1298,1500,l),
(1254,1500,l),
(1254,762,l),
(229,762,l),
(229,1500,l),
(185,1500,l),
(185,0,l),
(229,0,l),
(229,720,l)
);
},
{
closed = 1;
nodes = (
(347,723,o),
(365,721,o),
(361,729,cs),
(358,735,o),
(328,735,o),
(313,735,cs),
(265,733,o),
(328,728,o),
(340,725,cs)
);
},
{
closed = 1;
nodes = (
(519,730,o),
(558,719,o),
(557,729,cs),
(556,737,o),
(515,740,o),
(471,740,cs),
(431,740,o),
(414,742,o),
(413,731,cs),
(412,718,o),
(416,725,o),
(480,728,cs)
);
},
{
closed = 1;
nodes = (
(644,728,o),
(712,719,o),
(712,728,cs),
(712,734,o),
(658,739,o),
(631,734,cs),
(601,729,o),
(582,732,o),
(582,728,cs),
(582,720,o),
(625,728,o),
(635,728,cs)
);
},
{
closed = 1;
nodes = (
(1179,718,o),
(1204,721,o),
(1204,733,cs),
(1204,740,o),
(1152,738,o),
(1112,738,cs),
(1068,738,o),
(1026,739,o),
(1024,731,cs),
(1021,720,o),
(1075,734,o),
(1114,728,cs)
);
}
);
width = 1483;
},
{
layerId = "EE4C669A-5906-4A8E-97F5-76C9C8877141";
shapes = (
{
closed = 1;
nodes = (
(1254,720,l),
(1254,0,l),
(1298,0,l),
(1298,1500,l),
(1254,1500,l),
(1254,762,l),
(229,762,l),
(229,1500,l),
(185,1500,l),
(185,0,l),
(229,0,l),
(229,720,l)
);
},
{
closed = 1;
nodes = (
(340,529,o),
(390,563,o),
(361,646,cs),
(352,675,o),
(328,735,o),
(313,735,cs),
(265,733,o),
(257,606,o),
(326,542,cs)
);
},
{
closed = 1;
nodes = (
(535,458,o),
(563,539,o),
(557,585,cs),
(553,619,o),
(515,740,o),
(471,740,cs),
(431,740,o),
(401,630,o),
(400,588,cs),
(399,532,o),
(431,442,o),
(496,452,cs)
);
},
{
closed = 1;
nodes = (
(689,507,o),
(699,614,o),
(694,641,cs),
(691,664,o),
(658,739,o),
(631,734,cs),
(601,729,o),
(578,635,o),
(580,613,cs),
(585,583,o),
(606,507,o),
(631,507,cs)
);
},
{
closed = 1;
nodes = (
(1152,487,o),
(1184,530,o),
(1183,586,cs),
(1182,628,o),
(1152,738,o),
(1112,738,cs),
(1068,738,o),
(1030,617,o),
(1026,583,cs),
(1020,537,o),
(1048,503,o),
(1087,497,cs)
);
}
);
width = 1483;
}
);
unicode = (72,104);
},
{
glyphname = I;
lastChange = "2023-03-10 18:44:40 +0000";
layers = (
{
layerId = "5FFCF0B5-D422-4BE5-8BC5-6DA1EDB7DC6B";
shapes = (
{
closed = 1;
nodes = (
(185,0,l),
(185,1500,l),
(229,1500,l),
(229,0,l)
);
},
{
closed = 1;
nodes = (
(187,1380,o),
(190,1466,o),
(190,1472,cs),
(190,1479,o),
(184,1497,o),
(194,1497,cs),
(205,1497,o),
(218,1496,o),
(213,1441,cs),
(210,1385,o),
(203,1376,o),
(194,1378,cs)
);
},
{
closed = 1;
nodes = (
(207,1200,o),
(208,1213,o),
(204,1284,cs),
(200,1355,o),
(213,1450,o),
(222,1450,cs),
(233,1450,o),
(221,1398,o),
(224,1329,cs),
(228,1257,o),
(222,1200,o),
(215,1200,cs)
);
},
{
closed = 1;
nodes = (
(194,4,o),
(190,17,o),
(190,23,cs),
(190,31,o),
(187,80,o),
(187,80,cs),
(190,81,o),
(225,56,o),
(225,26,cs),
(225,-5,o),
(204,4,o),
(198,4,cs)
);
},
{
closed = 1;
nodes = (
(210,36,o),
(172,49,o),
(191,139,cs),
(201,187,o),
(195,252,o),
(203,252,cs),
(212,252,o),
(217,234,o),
(217,146,cs),
(217,88,o),
(222,39,o),
(210,36,cs)
);
},
{
closed = 1;
nodes = (
(209,0,o),
(190,23,o),
(190,65,cs),
(190,106,o),
(191,139,o),
(221,147,cs),
(229,149,o),
(225,109,o),
(225,68,cs),
(225,26,o),
(224,7,o),
(215,3,cs)
);
}
);
width = 414;
},
{
layerId = "EE4C669A-5906-4A8E-97F5-76C9C8877141";
shapes = (
{
closed = 1;
nodes = (
(185,0,l),
(185,1500,l),
(229,1500,l),
(229,0,l)
);
},
{
closed = 1;
nodes = (
(75,1383,o),
(42,1419,o),
(46,1476,cs),
(49,1529,o),
(100,1572,o),
(159,1570,cs),
(216,1568,o),
(218,1496,o),
(213,1441,cs),
(210,1385,o),
(170,1375,o),
(133,1378,cs)
);
},
{
closed = 1;
nodes = (
(248,1200,o),
(208,1213,o),
(204,1284,cs),
(200,1355,o),
(202,1447,o),
(259,1450,cs),
(318,1453,o),
(369,1398,o),
(372,1329,cs),
(376,1257,o),
(343,1210,o),
(285,1204,cs)
);
},
{
closed = 1;
nodes = (
(153,-30,o),
(129,-5,o),
(129,26,cs),
(129,56,o),
(153,80,o),
(184,80,cs),
(214,80,o),
(239,56,o),
(239,26,cs),
(239,-5,o),
(214,-30,o),
(184,-30,cs)
);
},
{
closed = 1;
nodes = (
(85,21,o),
(17,62,o),
(36,152,cs),
(46,200,o),
(82,248,o),
(133,248,cs),
(178,248,o),
(217,234,o),
(217,146,cs),
(217,88,o),
(178,62,o),
(133,42,cs)
);
},
{
closed = 1;
nodes = (
(222,-10,o),
(190,23,o),
(190,65,cs),
(190,106,o),
(222,139,o),
(263,139,cs),
(301,139,o),
(333,106,o),
(333,65,cs),
(333,23,o),
(301,-10,o),
(263,-10,cs)
);
}
);
width = 414;
}
);
unicode = (73,105);
},
{
glyphname = J;
lastChange = "2023-03-10 18:44:40 +0000";
layers = (
{
layerId = "5FFCF0B5-D422-4BE5-8BC5-6DA1EDB7DC6B";
shapes = (
{
closed = 1;
nodes = (
(163,-267,o),
(256,-78,o),
(256,64,qs),
(256,1500,l),
(212,1500,l),
(212,51,ls),
(212,-131,o),
(22,-318,o),
(-165,-318,q),
(-165,-360,l),
(-23,-360,o)
);
},
{
closed = 1;
nodes = (
(248,757,o),
(263,816,o),
(249,933,cs),
(240,1012,o),
(257,1247,o),
(249,1248,cs),
(243,1249,o),
(247,1153,o),
(243,1075,c),
(244,757,l)
);
},
{
closed = 1;
nodes = (
(216,1192,o),
(227,1158,o),
(244,1116,cs),
(260,1073,o),
(240,1055,o),
(249,1055,cs),
(259,1055,o),
(253,1108,o),
(246,1128,cs),
(231,1172,o),
(235,1207,o),
(226,1200,cs)
);
}
);
width = 441;
},
{
layerId = "EE4C669A-5906-4A8E-97F5-76C9C8877141";
shapes = (
{
closed = 1;
nodes = (
(163,-267,o),
(256,-78,o),
(256,64,qs),
(256,1500,l),
(212,1500,l),
(212,51,ls),
(212,-131,o),
(22,-318,o),
(-165,-318,q),
(-165,-360,l),
(-23,-360,o)
);
},
{
closed = 1;
nodes = (
(394,691,o),
(456,816,o),
(442,933,cs),
(433,1012,o),
(368,1245,o),
(303,1248,cs),
(230,1251,o),
(247,1153,o),
(243,1075,c),
(244,757,l)
);
},
{
closed = 1;
nodes = (
(353,1172,o),
(376,1139,o),
(393,1097,cs),
(409,1054,o),
(417,1021,o),
(462,1037,cs),
(508,1053,o),
(529,1101,o),
(514,1142,cs),
(496,1184,o),
(444,1205,o),
(400,1189,cs)
);
}
);
width = 441;
}
);
unicode = (74,106);
},
{
glyphname = K;
lastChange = "2023-03-10 18:44:40 +0000";
layers = (
{
layerId = "5FFCF0B5-D422-4BE5-8BC5-6DA1EDB7DC6B";
shapes = (
{
closed = 1;
nodes = (
(556,781,l),
(1189,0,l),
(1249,0,l),
(587,818,l),
(1128,1500,l),
(1072,1500,l),
(304,534,ls),
(282,506,o),
(249,463,o),
(229,438,q),
(229,1500,l),
(185,1500,l),
(185,0,l),
(229,0,l),
(229,370,l)
);
},
{
closed = 1;
nodes = (
(297,472,o),
(304,475,o),
(325,502,cs),
(335,515,o),
(366,534,o),
(347,543,cs),
(317,557,o),
(259,475,o),
(256,447,cs),
(251,413,o),
(264,429,o),
(278,447,cs)
);
},
{
closed = 1;
nodes = (
(501,715,o),
(531,746,o),
(526,758,cs),
(521,771,o),
(500,746,o),
(487,737,cs),
(457,716,o),
(391,625,o),
(390,616,cs),
(389,603,o),
(431,645,o),
(452,666,cs)
);
}
);
width = 1354;
},
{
layerId = "EE4C669A-5906-4A8E-97F5-76C9C8877141";
shapes = (
{
closed = 1;
nodes = (
(556,781,l),
(1189,0,l),
(1249,0,l),
(587,818,l),
(1128,1500,l),
(1072,1500,l),
(304,534,ls),
(282,506,o),
(249,463,o),
(229,438,q),
(229,1500,l),
(185,1500,l),
(185,0,l),
(229,0,l),
(229,370,l)
);
},
{
closed = 1;
nodes = (
(369,327,o),
(397,357,o),
(397,408,cs),
(397,435,o),
(382,535,o),
(347,543,cs),
(316,546,o),
(277,457,o),
(274,429,cs),
(269,395,o),
(273,327,o),
(341,327,cs)
);
},
{
closed = 1;
nodes = (
(562,337,o),
(575,450,o),
(568,517,cs),
(557,611,o),
(519,721,o),
(487,712,cs),
(451,702,o),
(430,523,o),
(428,483,cs),
(422,373,o),
(463,337,o),
(491,337,cs)
);
}
);
width = 1354;
}
);
unicode = (75,107);
},
{
glyphname = L;
lastChange = "2023-03-10 18:44:40 +0000";
layers = (
{
layerId = "5FFCF0B5-D422-4BE5-8BC5-6DA1EDB7DC6B";
shapes = (
{
closed = 1;
nodes = (
(229,42,l),
(229,1500,l),
(185,1500,l),
(185,0,l),
(1045,0,l),
(1045,42,l)
);
},
{
closed = 1;
nodes = (
(223,663,o),
(223,710,o),
(223,776,cs),
(223,896,o),
(201,896,o),
(196,895,cs),
(191,894,o),
(206,805,o),
(206,754,cs),
(207,700,o),
(208,663,o),
(216,663,cs)
);
},
{
closed = 1;
nodes = (
(229,402,o),
(223,436,o),
(223,552,cs),
(223,660,o),
(219,740,o),
(209,740,cs),
(199,740,o),
(198,631,o),
(198,554,cs),
(200,474,o),
(198,402,o),
(211,402,cs)
);
},
{
closed = 1;
nodes = (
(230,126,o),
(225,170,o),
(225,215,cs),
(225,231,o),
(230,311,o),
(217,308,cs),
(206,305,o),
(213,239,o),
(213,199,cs),
(214,158,o),
(210,133,o),
(219,130,cs)
);
},
{
closed = 1;
nodes = (
(230,26,o),
(224,76,o),
(223,108,cs),
(223,141,o),
(226,186,o),
(216,185,cs),
(203,184,o),
(210,126,o),
(210,93,cs),
(210,59,o),
(213,21,o),
(223,24,cs)
);
}
);
width = 1150;
},
{
layerId = "EE4C669A-5906-4A8E-97F5-76C9C8877141";
shapes = (
{
closed = 1;
nodes = (
(229,42,l),
(229,1500,l),
(185,1500,l),
(185,0,l),
(1045,0,l),
(1045,42,l)
);
},
{
closed = 1;
nodes = (
(318,657,o),
(391,688,o),
(391,754,cs),
(391,874,o),
(267,902,o),
(241,897,cs),
(159,882,o),
(210,805,o),
(210,754,cs),
(211,700,o),
(201,671,o),
(260,663,cs)
);
},
{
closed = 1;
nodes = (
(343,400,o),
(441,438,o),
(441,554,cs),
(441,662,o),
(354,760,o),
(264,746,cs),
(172,731,o),
(198,631,o),
(198,554,cs),
(200,474,o),
(180,412,o),
(274,405,cs)
);
},
{
closed = 1;
nodes = (
(298,125,o),
(343,159,o),
(354,202,cs),
(371,269,o),
(297,319,o),
(253,312,cs),
(207,304,o),
(213,239,o),
(213,199,cs),
(214,158,o),
(206,136,o),
(253,130,cs)
);
},
{
closed = 1;
nodes = (
(264,36,o),
(283,90,o),
(282,122,cs),
(282,155,o),
(267,191,o),
(237,185,cs),
(206,179,o),
(210,126,o),
(210,93,cs),
(210,59,o),
(205,36,o),
(237,36,cs)
);
}
);
width = 1150;
}
);
unicode = (76,108);
},
{
glyphname = M;
lastChange = "2023-03-10 18:44:40 +0000";
layers = (
{
layerId = "5FFCF0B5-D422-4BE5-8BC5-6DA1EDB7DC6B";
shapes = (
{
closed = 1;
nodes = (
(1538,1500,l),
(895,292,l),
(250,1500,l),
(186,1500,l),
(186,0,l),
(230,0,l),
(230,1446,l),
(869,252,l),
(920,252,l),
(1562,1450,l),
(1562,0,l),
(1606,0,l),
(1606,1500,l)
);
},
{
closed = 1;
nodes = (
(714,566,o),
(747,550,o),
(755,507,cs),
(762,485,o),
(807,388,o),
(818,391,cs),
(843,398,o),
(790,459,o),
(790,473,cs),
(790,485,o),
(738,578,o),
(722,570,cs)
);
},
{
closed = 1;
nodes = (
(767,459,o),
(793,412,o),
(799,398,cs),
(805,385,o),
(868,266,o),
(890,266,cs),
(903,266,o),
(853,347,o),
(848,362,cs),
(845,371,o),
(801,467,o),
(784,463,cs)
);
},
{
closed = 1;
nodes = (
(1067,607,o),
(953,402,o),
(955,391,cs),
(960,363,o),
(964,371,o),
(973,371,cs),
(981,371,o),
(1040,498,o),
(1049,513,cs),
(1053,520,o),
(1092,607,o),
(1076,607,cs)
);
},
{
closed = 1;
nodes = (
(642,698,o),
(669,672,o),
(679,629,cs),
(684,607,o),
(742,506,o),
(755,511,cs),
(768,516,o),
(722,586,o),
(722,599,cs),
(722,630,o),
(660,710,o),
(650,703,cs)
);
}
);
width = 1790;
},
{
layerId = "EE4C669A-5906-4A8E-97F5-76C9C8877141";
shapes = (
{
closed = 1;
nodes = (
(1538,1500,l),
(895,292,l),
(250,1500,l),
(186,1500,l),
(186,0,l),
(230,0,l),
(230,1446,l),
(869,252,l),
(920,252,l),
(1562,1450,l),
(1562,0,l),
(1606,0,l),
(1606,1500,l)
);
},
{
closed = 1;
nodes = (
(787,604,o),
(747,550,o),
(755,507,cs),
(762,485,o),
(806,404,o),
(857,404,cs),
(918,404,o),
(939,494,o),
(939,507,cs),
(939,538,o),
(931,620,o),
(827,609,cs)
);
},
{
closed = 1;
nodes = (
(831,495,o),
(799,441,o),
(807,398,cs),
(811,376,o),
(854,272,o),
(895,272,cs),
(944,272,o),
(954,385,o),
(954,398,cs),
(954,429,o),
(948,511,o),
(864,499,cs)
);
},
{
closed = 1;
nodes = (
(842,635,o),
(814,565,o),
(824,511,cs),
(829,484,o),
(875,383,o),
(927,383,cs),
(990,383,o),
(1044,498,o),
(1044,514,cs),
(1044,553,o),
(1051,635,o),
(927,635,cs)
);
},
{
closed = 1;
nodes = (
(709,726,o),
(669,672,o),
(679,629,cs),
(684,607,o),
(728,526,o),
(779,526,cs),
(840,526,o),
(861,616,o),
(861,629,cs),
(861,660,o),
(853,742,o),
(749,730,cs)
);
}
);
width = 1790;
}
);
unicode = (77,109);
},
{
glyphname = N;
lastChange = "2023-03-10 18:44:40 +0000";
layers = (
{
layerId = "5FFCF0B5-D422-4BE5-8BC5-6DA1EDB7DC6B";
shapes = (
{
closed = 1;
nodes = (
(1380,1500,l),
(1380,1019,o),
(1380,537,o),
(1380,56,c),
(242,1500,l),
(185,1500,l),
(185,0,l),
(229,0,l),
(229,1444,l),
(1367,0,l),
(1424,0,l),
(1424,1500,l)
);
},
{
closed = 1;
nodes = (
(1385,364,o),
(1391,171,o),
(1393,153,cs),
(1394,144,o),
(1375,3,o),
(1401,24,cs),
(1433,49,o),
(1417,226,o),
(1414,246,cs),
(1407,296,o),
(1423,371,o),
(1401,367,cs)
);
},
{
closed = 1;
nodes = (
(1151,347,o),
(1116,381,o),
(1091,416,cs),
(1061,458,o),
(1037,490,o),
(1034,490,cs),
(1014,490,o),
(1073,436,o),
(1081,423,cs),
(1094,402,o),
(1126,347,o),
(1145,347,cs)
);
},
{
closed = 1;
nodes = (
(1380,677,o),
(1391,497,o),
(1392,481,cs),
(1393,467,o),
(1385,328,o),
(1401,328,cs),
(1414,328,o),
(1416,521,o),
(1411,541,cs),
(1401,591,o),
(1405,690,o),
(1392,683,cs)
);
},
{
closed = 1;
nodes = (
(1361,52,o),
(1365,75,o),
(1327,113,cs),
(1316,124,o),
(1251,244,o),
(1214,226,cs),
(1191,215,o),
(1251,156,o),
(1256,150,cs),
(1262,142,o),
(1313,64,o),
(1329,60,cs)
);
}
);
width = 1609;
},
{
layerId = "EE4C669A-5906-4A8E-97F5-76C9C8877141";
shapes = (
{
closed = 1;
nodes = (
(1380,1500,l),
(1380,1019,o),
(1380,537,o),
(1380,56,c),
(242,1500,l),
(185,1500,l),
(185,0,l),
(229,0,l),
(229,1444,l),
(1367,0,l),
(1424,0,l),
(1424,1500,l)
);
},
{
closed = 1;
nodes = (
(1292,316,o),
(1289,216,o),
(1303,153,cs),
(1310,121,o),
(1350,12,o),
(1376,33,cs),
(1408,58,o),
(1417,226,o),
(1414,246,cs),
(1407,296,o),
(1397,402,o),
(1334,350,cs)
);
},
{
closed = 1;
nodes = (
(1192,347,o),
(1205,424,o),
(1180,459,cs),
(1150,501,o),
(1062,489,o),
(1039,490,cs),
(1019,491,o),
(1074,437,o),
(1081,423,cs),
(1096,394,o),
(1126,347,o),
(1145,347,cs)
);
},
{
closed = 1;
nodes = (
(1226,611,o),
(1222,511,o),
(1243,448,cs),
(1253,416,o),
(1310,324,o),
(1353,328,cs),
(1415,334,o),
(1416,521,o),
(1411,541,cs),
(1401,591,o),
(1385,697,o),
(1290,645,cs)
);
},
{
closed = 1;
nodes = (
(1254,-22,o),
(1353,-22,o),
(1285,94,cs),
(1264,130,o),
(1275,225,o),
(1214,204,cs),
(1174,188,o),
(1125,107,o),
(1118,83,cs),
(1101,33,o),
(1112,-22,o),
(1176,-22,cs)
);
}
);
width = 1609;
}
);
unicode = (78,110);
},
{
glyphname = O;
lastChange = "2023-03-10 18:44:40 +0000";
layers = (
{
layerId = "5FFCF0B5-D422-4BE5-8BC5-6DA1EDB7DC6B";
shapes = (
{
closed = 1;
nodes = (
(1323,86,o),
(1531,296,o),
(1645,581,o),
(1645,750,qs),
(1645,919,o),
(1531,1204,o),
(1323,1414,o),
(1043,1530,o),
(876,1530,qs),
(709,1530,o),
(427,1414,o),
(219,1204,o),
(105,919,o),
(105,750,qs),
(105,581,o),
(219,296,o),
(427,86,o),
(709,-30,o),
(876,-30,qs),
(1043,-30,o)
);
},
{
closed = 1;
nodes = (
(453,122,o),
(258,321,o),
(150,590,o),
(150,750,qs),
(150,910,o),
(258,1179,o),
(453,1378,o),
(718,1488,o),
(875,1488,qs),
(1032,1488,o),
(1297,1378,o),
(1492,1179,o),
(1600,909,o),
(1600,750,qs),
(1600,591,o),
(1492,321,o),
(1297,122,o),
(1032,12,o),
(875,12,qs),
(718,12,o)
);
},
{
closed = 1;
nodes = (
(778,18,o),
(640,38,o),
(640,30,cs),
(640,25,o),
(693,19,o),
(715,15,cs),
(779,5,o),
(780,8,o),
(779,13,cs)
);
},
{
closed = 1;
nodes = (
(929,2,o),
(938,-5,o),
(935,4,cs),
(934,8,o),
(890,7,o),
(822,11,cs),
(770,14,o),
(747,22,o),
(747,14,cs),
(747,9,o),
(788,2,o),
(829,2,cs)
);
},
{
closed = 1;
nodes = (
(1214,50,o),
(1243,83,o),
(1237,88,cs),
(1231,93,o),
(1194,66,o),
(1125,47,cs),
(1082,35,o),
(1056,21,o),
(1056,16,cs),
(1056,11,o),
(1097,3,o),
(1170,33,cs)
);
},
{
closed = 1;
nodes = (
(1031,0,o),
(1072,15,o),
(1072,19,cs),
(1072,30,o),
(1012,16,o),
(1006,15,cs),
(977,10,o),
(943,12,o),
(943,3,cs),
(943,-2,o),
(941,-10,o),
(1005,-3,cs)
);
},
{
closed = 1;
nodes = (
(977,8,o),
(988,10,o),
(988,12,cs),
(988,14,o),
(964,12,o),
(933,12,cs),
(916,12,o),
(894,12,o),
(894,9,cs),
(894,7,o),
(907,8,o),
(928,8,cs)
);
},
{
closed = 1;
nodes = (
(594,50,o),
(570,28,o),
(589,25,cs),
(605,22,o),
(667,5,o),
(676,8,cs),
(683,10,o),
(663,34,o),
(638,40,cs)
);
}
);
width = 1750;
},
{
layerId = "EE4C669A-5906-4A8E-97F5-76C9C8877141";
shapes = (
{
closed = 1;
nodes = (
(1323,86,o),
(1531,296,o),
(1645,581,o),
(1645,750,qs),
(1645,919,o),
(1531,1204,o),
(1323,1414,o),
(1043,1530,o),
(876,1530,qs),
(709,1530,o),
(427,1414,o),
(219,1204,o),
(105,919,o),
(105,750,qs),
(105,581,o),
(219,296,o),
(427,86,o),
(709,-30,o),
(876,-30,qs),
(1043,-30,o)
);
},
{
closed = 1;
nodes = (
(453,122,o),
(258,321,o),
(150,590,o),
(150,750,qs),
(150,910,o),
(258,1179,o),
(453,1378,o),
(718,1488,o),
(875,1488,qs),
(1032,1488,o),
(1297,1378,o),
(1492,1179,o),
(1600,909,o),
(1600,750,qs),
(1600,591,o),
(1492,321,o),
(1297,122,o),
(1032,12,o),
(875,12,qs),
(718,12,o)
);
},
{
closed = 1;
nodes = (
(737,154,o),
(623,87,o),
(640,44,cs),
(645,29,o),
(693,19,o),
(715,15,cs),
(779,5,o),
(774,54,o),
(769,68,cs)
);
},
{
closed = 1;
nodes = (
(929,2,o),
(936,32,o),
(928,46,cs),
(923,59,o),
(920,125,o),
(821,122,cs),
(769,120,o),
(747,49,o),
(747,37,cs),
(747,14,o),
(788,2,o),
(829,2,cs)
);
},
{
closed = 1;
nodes = (
(1214,50,o),
(1248,80,o),
(1225,102,cs),
(1208,118,o),
(1152,153,o),
(1083,134,cs),
(1040,122,o),
(1038,64,o),
(1044,42,cs),
(1052,14,o),
(1097,3,o),
(1170,33,cs)
);
},
{
closed = 1;
nodes = (
(1031,-3,o),
(1058,10,o),
(1063,50,cs),
(1066,73,o),
(1053,129,o),
(1009,133,cs),
(980,136,o),
(936,102,o),
(936,62,cs),
(936,42,o),
(941,-3,o),
(1005,-3,cs)
);
},
{
closed = 1;
nodes = (
(977,8,o),
(980,54,o),
(977,75,cs),
(974,95,o),
(973,160,o),
(924,151,cs),
(882,143,o),
(887,79,o),
(887,61,cs),
(887,26,o),
(907,8,o),
(928,8,cs)
);
},
{
closed = 1;
nodes = (
(603,171,o),
(530,23,o),
(589,25,cs),
(605,25,o),
(647,36,o),
(667,46,cs),
(724,75,o),
(702,105,o),
(679,120,cs)
);
}
);
width = 1750;
}
);
unicode = (79,111);
},
{
glyphname = P;
lastChange = "2023-03-10 18:44:40 +0000";
layers = (
{
layerId = "5FFCF0B5-D422-4BE5-8BC5-6DA1EDB7DC6B";
shapes = (
{
closed = 1;
nodes = (
(229,629,l),
(591,629,ls),
(768,629,o),
(1015,733,o),
(1145,929,o),
(1145,1065,qs),
(1145,1202,o),
(1015,1396,o),
(768,1500,o),
(591,1500,qs),
(185,1500,l),
(185,0,l),
(229,0,l)
);
},
{
closed = 1;
nodes = (
(591,1458,ls),
(833,1458,o),
(1100,1248,o),
(1100,1065,qs),
(1100,882,o),
(833,671,o),
(591,671,qs),
(229,671,l),
(229,1458,l)
);
},
{
closed = 1;
nodes = (
(498,1461,o),
(504,1461,o),
(504,1464,cs),
(504,1473,o),
(483,1474,o),
(451,1474,cs),
(427,1474,o),
(408,1478,o),
(408,1468,cs),
(408,1462,o),
(447,1461,o),
(462,1461,cs)
);
},
{
closed = 1;
nodes = (
(229,1185,o),
(220,1321,o),
(220,1335,cs),
(220,1349,o),
(214,1473,o),
(207,1470,cs),
(192,1464,o),
(207,1380,o),
(209,1311,cs),
(211,1242,o),
(211,1179,o),
(220,1182,cs)
);
},
{
closed = 1;
nodes = (
(398,1463,o),
(411,1458,o),
(411,1466,cs),
(411,1473,o),
(356,1475,o),
(342,1475,cs),
(311,1475,o),
(307,1472,o),
(307,1466,cs),
(307,1461,o),
(332,1463,o),
(352,1463,cs)
);
},
{
closed = 1;
nodes = (
(210,1191,o),
(210,1272,o),
(210,1293,cs),
(210,1308,o),
(220,1450,o),
(200,1450,cs),
(189,1450,o),
(191,1322,o),
(191,1309,cs),
(191,1297,o),
(190,1191,o),
(202,1191,cs)
);
},
{
closed = 1;
nodes = (
(562,1461,o),
(585,1463,o),
(584,1466,cs),
(581,1474,o),
(509,1475,o),
(498,1472,cs),
(490,1470,o),
(477,1467,o),
(477,1464,cs),
(477,1460,o),
(542,1461,o),
(553,1461,cs)
);
}
);
width = 1310;
},
{
layerId = "EE4C669A-5906-4A8E-97F5-76C9C8877141";
shapes = (
{
closed = 1;
nodes = (
(229,629,l),
(591,629,ls),
(768,629,o),
(1015,733,o),
(1145,929,o),
(1145,1065,qs),
(1145,1202,o),
(1015,1396,o),
(768,1500,o),
(591,1500,qs),
(185,1500,l),
(185,0,l),
(229,0,l)
);
},
{
closed = 1;
nodes = (
(591,1458,ls),
(833,1458,o),
(1100,1248,o),
(1100,1065,qs),
(1100,882,o),
(833,671,o),
(591,671,qs),
(229,671,l),
(229,1458,l)
);
},
{
closed = 1;
nodes = (
(498,1094,o),
(499,1176,o),
(500,1288,cs),
(500,1337,o),
(483,1474,o),
(451,1474,cs),
(427,1474,o),
(426,1328,o),
(428,1218,cs),
(429,1108,o),
(447,1094,o),
(462,1094,cs)
);
},
{
closed = 1;
nodes = (
(299,1182,o),
(321,1223,o),
(301,1330,cs),
(289,1396,o),
(271,1475,o),
(239,1472,cs),
(208,1469,o),
(207,1380,o),
(209,1311,cs),
(211,1242,o),
(233,1182,o),
(253,1182,cs)
);
},
{
closed = 1;
nodes = (
(402,1225,o),
(404,1277,o),
(404,1347,cs),
(404,1368,o),
(374,1467,o),
(342,1464,cs),
(311,1461,o),
(310,1372,o),
(312,1303,cs),
(314,1234,o),
(336,1225,o),
(356,1225,cs)
);
},
{
closed = 1;
nodes = (
(114,1176,o),
(178,1209,o),
(193,1296,cs),
(198,1317,o),
(216,1438,o),
(187,1450,cs),
(158,1461,o),
(93,1384,o),
(63,1322,cs),
(33,1259,o),
(55,1206,o),
(73,1197,cs)
);
},
{
closed = 1;
nodes = (
(593,1350,o),
(602,1370,o),
(576,1404,cs),
(560,1425,o),
(517,1475,o),
(498,1468,cs),
(481,1463,o),
(492,1431,o),
(503,1407,cs),
(513,1383,o),
(554,1340,o),
(565,1343,cs)
);
}
);
width = 1310;
}
);
unicode = (80,112);
},
{
glyphname = Q;
lastChange = "2023-03-10 18:44:40 +0000";
layers = (
{
layerId = "5FFCF0B5-D422-4BE5-8BC5-6DA1EDB7DC6B";
shapes = (
{
closed = 1;
nodes = (
(1509,-139,o),
(1325,-113,o),
(1126,-62,o),
(1000,-21,q),
(1190,7,o),
(1480,218,o),
(1645,547,o),
(1645,750,qs),
(1645,919,o),
(1531,1204,o),
(1323,1414,o),
(1043,1530,o),
(876,1530,qs),
(709,1530,o),
(427,1414,o),
(219,1204,o),
(105,919,o),
(105,750,qs),
(105,581,o),
(219,296,o),
(427,87,o),
(709,-29,o),
(876,-29,qs),
(921,-29,l),
(1032,-74,o),
(1230,-137,o),
(1455,-182,o),
(1604,-202,q),
(1611,-145,l)
);
},
{
closed = 1;
nodes = (
(453,122,o),
(258,321,o),
(150,590,o),
(150,750,qs),
(150,910,o),
(258,1179,o),
(453,1378,o),
(718,1488,o),
(875,1488,qs),
(1032,1488,o),
(1297,1378,o),
(1492,1179,o),
(1600,909,o),
(1600,750,qs),
(1600,591,o),
(1492,321,o),
(1297,122,o),
(1032,12,o),
(875,12,qs),
(718,12,o)
);
},
{
closed = 1;
nodes = (
(1571,980,o),
(1590,908,o),
(1605,812,cs),
(1624,690,o),
(1597,622,o),
(1612,624,cs),
(1631,627,o),
(1636,721,o),
(1620,817,cs),
(1603,915,o),
(1620,980,o),
(1591,980,cs)
);
},
{
closed = 1;
nodes = (
(1502,1149,o),
(1561,1024,o),
(1564,1018,cs),
(1569,1008,o),
(1593,924,o),
(1604,922,cs),
(1623,918,o),
(1604,1005,o),
(1573,1062,cs),
(1543,1117,o),
(1523,1157,o),
(1503,1149,cs)
);
},
{
closed = 1;
nodes = (
(1588,523,o),
(1518,381,o),
(1535,380,cs),
(1555,379,o),
(1569,439,o),
(1590,489,cs),
(1622,565,o),
(1619,678,o),
(1609,683,cs),
(1593,691,o),
(1596,579,o),
(1593,558,cs)
);
},
{
closed = 1;
nodes = (
(276,310,o),
(207,389,o),
(198,385,cs),
(191,382,o),
(243,306,o),
(247,296,cs),
(253,282,o),
(357,156,o),
(369,159,cs),
(382,162,o),
(324,248,o),
(303,275,cs)
);
},
{
closed = 1;
nodes = (
(469,126,o),
(399,176,o),
(389,183,cs),
(379,190,o),
(343,224,o),
(340,218,cs),
(336,209,o),
(388,162,o),
(409,143,cs),
(423,130,o),
(469,76,o),
(469,116,cs)
);
}
);
width = 1750;
},
{
layerId = "EE4C669A-5906-4A8E-97F5-76C9C8877141";
shapes = (
{
closed = 1;
nodes = (
(1509,-139,o),
(1325,-113,o),
(1126,-62,o),
(1000,-21,q),
(1190,7,o),
(1480,218,o),
(1645,547,o),
(1645,750,qs),
(1645,919,o),
(1531,1204,o),
(1323,1414,o),
(1043,1530,o),
(876,1530,qs),
(709,1530,o),
(427,1414,o),
(219,1204,o),
(105,919,o),
(105,750,qs),
(105,581,o),
(219,296,o),
(427,87,o),
(709,-29,o),
(876,-29,qs),
(921,-29,l),
(1032,-74,o),
(1230,-137,o),
(1455,-182,o),
(1604,-202,q),
(1611,-145,l)
);
},
{
closed = 1;
nodes = (
(453,122,o),
(258,321,o),
(150,590,o),
(150,750,qs),
(150,910,o),
(258,1179,o),
(453,1378,o),
(718,1488,o),
(875,1488,qs),
(1032,1488,o),
(1297,1378,o),
(1492,1179,o),
(1600,909,o),
(1600,750,qs),
(1600,591,o),
(1492,321,o),
(1297,122,o),
(1032,12,o),
(875,12,qs),
(718,12,o)
);
},
{
closed = 1;
nodes = (
(1374,965,o),
(1298,866,o),
(1313,770,cs),
(1332,648,o),
(1436,579,o),
(1543,616,cs),
(1652,651,o),
(1625,721,o),
(1609,817,cs),
(1592,915,o),
(1602,974,o),
(1486,969,cs)
);
},
{
closed = 1;
nodes = (
(1369,1093,o),
(1326,999,o),
(1356,940,cs),
(1399,855,o),
(1490,857,o),
(1554,905,cs),
(1621,953,o),
(1589,993,o),
(1558,1051,cs),
(1526,1111,o),
(1521,1151,o),
(1444,1122,cs)
);
},
{
closed = 1;
nodes = (
(1339,637,o),
(1318,567,o),
(1381,504,cs),
(1441,444,o),
(1527,451,o),
(1574,515,cs),
(1622,582,o),
(1628,637,o),
(1581,683,cs),
(1532,730,o),
(1466,739,o),
(1402,688,cs)
);
},
{
closed = 1;
nodes = (
(495,528,o),
(377,510,o),
(335,490,cs),
(281,464,o),
(234,374,o),
(266,311,cs),
(302,239,o),
(373,176,o),
(454,202,cs),
(539,230,o),
(602,310,o),
(555,406,cs)
);
},
{
closed = 1;
nodes = (
(510,233,o),
(476,288,o),
(443,300,cs),
(411,312,o),
(387,297,o),
(369,260,cs),
(351,225,o),
(375,173,o),
(417,159,cs),
(462,144,o),
(496,153,o),
(504,193,cs)
);
}
);
width = 1750;
}
);
unicode = (81,113);
},
{
glyphname = R;
lastChange = "2023-03-10 18:44:40 +0000";
layers = (
{
layerId = "5FFCF0B5-D422-4BE5-8BC5-6DA1EDB7DC6B";
shapes = (
{
closed = 1;
nodes = (
(911,706,o),
(1115,921,o),
(1115,1089,qs),
(1115,1214,o),
(1001,1398,o),
(794,1500,o),
(654,1500,qs),
(185,1500,l),
(185,0,l),
(229,0,l),
(229,679,l),
(686,679,l),
(1090,0,l),
(1140,0,l),
(737,684,l)
);
},
{
closed = 1;
nodes = (
(654,1458,ls),
(845,1458,o),
(1070,1258,o),
(1070,1089,qs),
(1070,921,o),
(844,721,o),
(654,721,qs),
(229,721,l),
(229,1458,l)
);
},
{
closed = 1;
nodes = (
(748,731,o),
(582,696,o),
(568,695,cs),
(559,694,o),
(502,690,o),
(502,682,cs),
(502,674,o),
(632,692,o),
(657,691,cs),
(731,688,o),
(754,597,o),
(753,618,cs)
);
},
{
closed = 1;
nodes = (
(417,701,o),
(396,695,o),
(396,689,cs),
(396,676,o),
(502,682,o),
(534,684,cs),
(566,686,o),
(600,688,o),
(598,695,cs),
(594,708,o),
(523,710,o),
(474,706,cs)
);
},
{
closed = 1;
nodes = (
(686,678,o),
(757,689,o),
(763,690,cs),
(786,694,o),
(901,729,o),
(889,735,cs),
(873,743,o),
(808,732,o),
(773,718,cs),
(747,708,o),
(686,712,o),
(686,701,cs)
);
}
);
width = 1245;
},
{
layerId = "EE4C669A-5906-4A8E-97F5-76C9C8877141";
shapes = (
{
closed = 1;
nodes = (
(911,706,o),
(1115,921,o),
(1115,1089,qs),
(1115,1214,o),
(1001,1398,o),
(794,1500,o),
(654,1500,qs),
(185,1500,l),
(185,0,l),
(229,0,l),
(229,679,l),
(686,679,l),
(1090,0,l),
(1140,0,l),
(737,684,l)
);
},
{
closed = 1;
nodes = (
(654,1458,ls),
(845,1458,o),
(1070,1258,o),
(1070,1089,qs),
(1070,921,o),
(844,721,o),
(654,721,qs),
(229,721,l),
(229,1458,l)
);
},
{
closed = 1;
nodes = (
(702,722,o),
(604,705,o),
(568,687,cs),
(523,663,o),
(499,584,o),
(511,522,cs),
(523,456,o),
(600,398,o),
(668,422,cs),
(739,448,o),
(792,521,o),
(753,610,cs)
);
},
{
closed = 1;
nodes = (
(406,684,o),
(385,612,o),
(406,562,cs),
(427,514,o),
(503,507,o),
(544,532,cs),
(582,556,o),
(613,606,o),
(603,642,cs),
(596,670,o),
(558,731,o),
(474,704,cs)
);
},
{
closed = 1;
nodes = (
(753,518,o),
(826,505,o),
(873,531,cs),
(919,557,o),
(918,633,o),
(889,670,cs),
(861,706,o),
(808,732,o),
(773,718,cs),
(747,708,o),
(690,664,o),
(724,583,cs)
);
}
);
width = 1245;
}
);
unicode = (82,114);
},
{
glyphname = S;
lastChange = "2023-03-10 18:44:40 +0000";
layers = (
{
layerId = "5FFCF0B5-D422-4BE5-8BC5-6DA1EDB7DC6B";
shapes = (
{
closed = 1;
nodes = (
(435,-30,o),
(553,-30,qs),
(690,-30,o),
(901,76,o),
(1021,263,o),
(1021,384,qs),
(1021,479,o),
(950,612,o),
(831,707,o),
(685,779,o),
(609,811,qs),
(515,851,o),
(346,940,o),
(239,1070,o),
(239,1171,qs),
(239,1265,o),
(335,1408,o),
(502,1488,o),
(611,1488,qs),
(685,1488,o),
(833,1448,o),
(902,1410,q),
(925,1449,l),
(856,1489,o),
(699,1530,o),
(616,1530,qs),
(491,1530,o),
(300,1440,o),
(194,1278,o),
(194,1171,qs),
(194,1085,o),
(260,963,o),
(373,874,o),
(513,806,o),
(586,775,qs),
(684,734,o),
(862,639,o),
(976,496,o),
(976,382,qs),
(976,274,o),
(867,107,o),
(674,12,o),
(549,12,qs),
(475,12,o),
(332,47,o),
(200,116,o),
(140,166,q),
(115,131,l),
(210,53,o)
);
},
{
closed = 1;
nodes = (
(915,173,o),
(875,132,o),
(839,87,cs),
(783,17,o),
(660,5,o),
(678,0,cs),
(698,-6,o),
(808,34,o),
(846,69,cs),
(896,115,o),
(946,173,o),
(925,173,cs)
);
},
{
closed = 1;
nodes = (
(925,133,o),
(953,184,o),
(943,191,cs),
(933,198,o),
(911,169,o),
(885,133,cs),
(856,95,o),
(826,81,o),
(835,76,cs),
(842,72,o),
(871,74,o),
(901,107,cs)
);
},
{
closed = 1;
nodes = (
(614,-16,o),
(594,-10,o),
(598,-14,cs),
(603,-19,o),
(691,-10,o),
(729,15,cs),
(780,49,o),
(809,53,o),
(802,62,cs),
(802,62,o),
(715,41,o),
(665,13,cs)
);
},
{
closed = 1;
nodes = (
(319,48,o),
(292,69,o),
(289,62,cs),
(285,53,o),
(332,39,o),
(347,34,cs),
(363,29,o),
(436,-5,o),
(439,0,cs),
(452,21,o),
(377,34,o),
(356,39,cs)
);
},
{
closed = 1;
nodes = (
(210,108,o),
(195,123,o),
(194,117,cs),
(193,111,o),
(205,101,o),
(225,89,cs),
(245,76,o),
(265,66,o),
(267,69,cs),
(275,81,o),
(243,91,o),
(231,97,cs)
);
}
);
width = 1156;
},
{
layerId = "EE4C669A-5906-4A8E-97F5-76C9C8877141";
shapes = (
{
closed = 1;
nodes = (
(435,-30,o),
(553,-30,qs),
(690,-30,o),
(901,76,o),
(1021,263,o),
(1021,384,qs),
(1021,479,o),
(950,612,o),
(831,707,o),
(685,779,o),
(609,811,qs),
(515,851,o),
(346,940,o),
(239,1070,o),
(239,1171,qs),
(239,1265,o),
(335,1408,o),
(502,1488,o),
(611,1488,qs),
(685,1488,o),
(833,1448,o),
(902,1410,q),
(925,1449,l),
(856,1489,o),
(699,1530,o),
(616,1530,qs),
(491,1530,o),
(300,1440,o),
(194,1278,o),
(194,1171,qs),
(194,1085,o),
(260,963,o),
(373,874,o),
(513,806,o),
(586,775,qs),
(684,734,o),
(862,639,o),
(976,496,o),
(976,382,qs),
(976,274,o),
(867,107,o),
(674,12,o),
(549,12,qs),
(475,12,o),
(332,47,o),
(200,116,o),
(140,166,q),
(115,131,l),
(210,53,o)
);
},
{
closed = 1;
nodes = (
(751,312,o),
(657,302,o),
(621,257,cs),
(565,187,o),
(591,105,o),
(662,69,cs),
(736,32,o),
(791,34,o),
(829,88,cs),
(868,144,o),
(869,213,o),
(806,266,cs)
);
},
{
closed = 1;
nodes = (
(936,137,o),
(937,180,o),
(925,204,cs),
(908,237,o),
(846,241,o),
(820,205,cs),
(791,167,o),
(796,120,o),
(816,98,cs),
(836,78,o),
(868,77,o),
(901,107,cs)
);
},
{
closed = 1;
nodes = (
(591,147,o),
(578,94,o),
(587,60,cs),
(598,15,o),
(675,-7,o),
(719,30,cs),
(764,71,o),
(770,131,o),
(751,163,cs),
(732,194,o),
(692,204,o),
(642,176,cs)
);
},
{
closed = 1;
nodes = (
(401,140,o),
(362,139,o),
(339,122,cs),
(315,104,o),
(314,53,o),
(347,34,cs),
(382,14,o),
(428,26,o),
(444,44,cs),
(460,62,o),
(458,89,o),
(430,114,cs)
);
},
{
closed = 1;
nodes = (
(255,159,o),
(233,158,o),
(222,150,cs),
(206,140,o),
(207,106,o),
(227,94,cs),
(247,81,o),
(270,87,o),
(280,98,cs),
(289,110,o),
(288,127,o),
(272,143,cs)
);
}
);
width = 1156;
}
);
unicode = (83,115);
},
{
glyphname = T;
lastChange = "2023-03-10 18:44:40 +0000";
layers = (
{
layerId = "5FFCF0B5-D422-4BE5-8BC5-6DA1EDB7DC6B";
shapes = (
{
closed = 1;
nodes = (
(1153,1458,l),
(1153,1500,l),
(65,1500,l),
(65,1458,l),
(587,1458,l),
(587,0,l),
(631,0,l),
(631,1458,l)
);
},
{
closed = 1;
nodes = (
(624,1252,o),
(624,1282,o),
(624,1313,cs),
(624,1343,o),
(620,1368,o),
(611,1368,cs),
(599,1368,o),
(603,1338,o),
(603,1308,cs),
(603,1277,o),
(599,1252,o),
(611,1252,cs)
);
},
{
closed = 1;
nodes = (
(622,1475,o),
(622,1431,o),
(622,1461,cs),
(622,1484,o),
(567,1492,o),
(522,1492,cs),
(471,1492,o),
(403,1489,o),
(400,1472,cs),
(396,1452,o),
(451,1470,o),
(522,1472,cs)
);
},
{
closed = 1;
nodes = (
(621,1437,o),
(632,1470,o),
(641,1476,cs),
(648,1481,o),
(666,1493,o),
(653,1494,cs),
(636,1495,o),
(593,1476,o),
(593,1458,cs),
(593,1439,o),
(603,1432,o),
(611,1434,cs)
);
}
);
width = 1218;
},
{
layerId = "EE4C669A-5906-4A8E-97F5-76C9C8877141";
shapes = (
{
closed = 1;
nodes = (
(1153,1458,l),
(1153,1500,l),
(65,1500,l),
(65,1458,l),
(587,1458,l),
(587,0,l),
(631,0,l),
(631,1458,l)
);
},
{
closed = 1;
nodes = (
(688,1252,o),
(713,1277,o),
(713,1308,cs),
(713,1338,o),
(688,1362,o),
(658,1362,cs),
(627,1362,o),
(603,1338,o),
(603,1308,cs),
(603,1277,o),
(627,1252,o),
(658,1252,cs)
);
},
{
closed = 1;
nodes = (
(581,1267,o),
(606,1332,o),
(606,1390,cs),
(606,1478,o),
(567,1492,o),
(522,1492,cs),
(471,1492,o),
(410,1450,o),
(400,1402,cs),
(381,1312,o),
(437,1267,o),
(508,1267,cs)
);
},
{
closed = 1;
nodes = (
(712,1337,o),
(744,1370,o),
(744,1412,cs),
(744,1453,o),
(712,1486,o),
(674,1486,cs),
(633,1486,o),
(601,1453,o),
(601,1412,cs),
(601,1370,o),
(633,1337,o),
(674,1337,cs)
);
}
);
width = 1218;
}
);
unicode = (84,116);
},
{
glyphname = U;
lastChange = "2023-03-10 18:44:40 +0000";
layers = (
{
layerId = "5FFCF0B5-D422-4BE5-8BC5-6DA1EDB7DC6B";
shapes = (
{
closed = 1;
nodes = (
(1349,657,ls),
(1349,460,o),
(1212,170,o),
(961,12,o),
(789,12,qs),
(618,12,o),
(367,170,o),
(229,460,o),
(229,657,qs),
(229,1500,l),
(185,1500,l),
(185,667,ls),
(185,450,o),
(330,138,o),
(601,-30,o),
(789,-30,qs),
(978,-30,o),
(1248,137,o),
(1393,450,o),
(1393,667,qs),
(1393,1500,l),
(1349,1500,l)
);
},
{
closed = 1;
nodes = (
(368,137,o),
(391,136,o),
(398,141,cs),
(403,145,o),
(358,210,o),
(312,273,cs),
(260,344,o),
(243,420,o),
(235,414,cs),
(219,402,o),
(253,339,o),
(286,281,cs)
);
},
{
closed = 1;
nodes = (
(584,46,o),
(547,53,o),
(509,74,cs),
(465,101,o),
(435,130,o),
(425,122,cs),
(408,109,o),
(476,79,o),
(489,72,cs),
(520,55,o),
(576,23,o),
(580,34,cs)
);
},
{
closed = 1;
nodes = (
(775,8,o),
(637,30,o),
(631,14,cs),
(625,-1,o),
(684,-8,o),
(706,-12,cs),
(770,-22,o),
(775,-18,o),
(775,-3,cs)
);
}
);
width = 1578;
},
{
layerId = "EE4C669A-5906-4A8E-97F5-76C9C8877141";
shapes = (
{
closed = 1;
nodes = (
(1349,657,ls),
(1349,460,o),
(1212,170,o),
(961,12,o),
(789,12,qs),
(618,12,o),
(367,170,o),
(229,460,o),
(229,657,qs),
(229,1500,l),
(185,1500,l),
(185,667,ls),
(185,450,o),
(330,138,o),
(601,-30,o),
(789,-30,qs),
(978,-30,o),
(1248,137,o),
(1393,450,o),
(1393,667,qs),
(1393,1500,l),
(1349,1500,l)
);
},
{
closed = 1;
nodes = (
(368,137,o),
(400,152,o),
(431,175,cs),
(449,189,o),
(537,252,o),
(451,391,cs),
(405,464,o),
(286,436,o),
(268,426,cs),
(236,408,o),
(253,339,o),
(286,281,cs)
);
},
{
closed = 1;
nodes = (
(625,57,o),
(607,132,o),
(569,153,cs),
(525,180,o),
(449,133,o),
(428,125,cs),
(409,118,o),
(463,68,o),
(475,59,c),
(501,38,o),
(565,30,o),
(582,37,cs)
);
},
{
closed = 1;
nodes = (
(729,145,o),
(615,78,o),
(632,35,cs),
(637,20,o),
(685,10,o),
(707,6,cs),
(771,-4,o),
(766,45,o),
(761,59,cs)
);
}
);
width = 1578;
}
);
unicode = (85,117);
},
{
glyphname = V;
lastChange = "2023-03-10 18:44:40 +0000";
layers = (
{
layerId = "5FFCF0B5-D422-4BE5-8BC5-6DA1EDB7DC6B";
shapes = (
{
closed = 1;
nodes = (
(1372,1500,l),
(758,46,l),
(143,1500,l),
(95,1500,l),
(728,0,l),
(787,0,l),
(1420,1500,l)
);
},
{
closed = 1;
nodes = (
(379,847,o),
(409,784,o),
(424,810,cs),
(432,823,o),
(390,913,o),
(373,928,cs),
(327,968,o),
(362,886,o),
(373,861,cs)
);
},
{
closed = 1;
nodes = (
(439,691,o),
(468,630,o),
(477,636,cs),
(493,647,o),
(463,739,o),
(446,754,cs),
(400,794,o),
(414,760,o),
(433,707,cs)
);
},
{
closed = 1;
nodes = (
(484,672,o),
(472,715,o),
(453,759,cs),
(428,816,o),
(392,935,o),
(368,927,cs),
(351,921,o),
(408,830,o),
(429,786,cs),
(450,740,o),
(465,669,o),
(472,670,cs)
);
},
{
closed = 1;
nodes = (
(574,456,o),
(554,519,o),
(535,563,cs),
(510,620,o),
(477,733,o),
(455,720,cs),
(433,707,o),
(487,626,o),
(508,582,cs),
(529,536,o),
(544,452,o),
(559,454,cs)
);
},
{
closed = 1;
nodes = (
(540,461,o),
(570,436,o),
(569,448,cs),
(567,471,o),
(510,576,o),
(498,576,cs),
(481,576,o),
(513,524,o),
(531,482,cs)
);
}
);
width = 1515;
},
{
layerId = "EE4C669A-5906-4A8E-97F5-76C9C8877141";
shapes = (
{
closed = 1;
nodes = (
(1372,1500,l),
(758,46,l),
(143,1500,l),
(95,1500,l),
(728,0,l),
(787,0,l),
(1420,1500,l)
);
},
{
closed = 1;
nodes = (
(278,719,o),
(339,694,o),
(361,794,cs),
(369,828,o),
(383,904,o),
(366,919,cs),
(320,959,o),
(172,813,o),
(263,732,cs)
);
},
{
closed = 1;
nodes = (
(350,548,o),
(409,523,o),
(431,623,cs),
(439,657,o),
(455,733,o),
(438,748,cs),
(392,788,o),
(244,642,o),
(335,561,cs)
);
},
{
closed = 1;
nodes = (
(590,708,o),
(623,760,o),
(604,804,cs),
(579,861,o),
(473,963,o),
(419,934,cs),
(362,907,o),
(408,830,o),
(429,786,cs),
(450,740,o),
(464,680,o),
(529,694,cs)
);
},
{
closed = 1;
nodes = (
(669,504,o),
(702,556,o),
(683,600,cs),
(658,657,o),
(552,759,o),
(497,731,cs),
(441,703,o),
(487,626,o),
(508,582,cs),
(529,536,o),
(543,476,o),
(608,490,cs)
);
},
{
closed = 1;
nodes = (
(445,351,o),
(535,352,o),
(514,448,cs),
(508,472,o),
(510,563,o),
(498,573,cs),
(466,601,o),
(350,446,o),
(409,387,cs)
);
}
);
width = 1515;
}
);
unicode = (86,118);
},
{
glyphname = W;
lastChange = "2023-03-10 18:44:40 +0000";
layers = (
{
layerId = "5FFCF0B5-D422-4BE5-8BC5-6DA1EDB7DC6B";
shapes = (
{
closed = 1;
nodes = (
(1957,1500,l),
(1507,112,l),
(1056,1500,l),
(1035,1500,l),
(885,1037,o),
(734,573,o),
(584,110,c),
(131,1500,l),
(85,1500,l),
(573,0,l),
(594,0,l),
(1046,1391,l),
(1496,0,l),
(1517,0,l),
(2003,1500,l)
);
},
{
closed = 1;
nodes = (
(392,575,o),
(428,470,o),
(435,448,cs),
(444,420,o),
(485,250,o),
(506,253,cs),
(538,258,o),
(485,395,o),
(475,427,cs),
(467,452,o),
(424,584,o),
(407,579,cs)
);
},
{
closed = 1;
nodes = (
(566,105,o),
(564,137,o),
(548,137,cs),
(527,137,o),
(552,79,o),
(589,79,cs),
(634,79,o),
(633,134,o),
(620,134,cs),
(605,134,o),
(607,105,o),
(582,105,cs)
);
},
{
closed = 1;
nodes = (
(1583,364,o),
(1563,266,o),
(1560,255,cs),
(1557,244,o),
(1524,156,o),
(1542,152,cs),
(1565,147,o),
(1587,232,o),
(1590,245,cs),
(1592,255,o),
(1621,364,o),
(1596,364,cs)
);
}
);
width = 2088;
},
{
layerId = "EE4C669A-5906-4A8E-97F5-76C9C8877141";
shapes = (
{
closed = 1;
nodes = (
(1957,1500,l),
(1507,112,l),
(1056,1500,l),
(1035,1500,l),
(885,1037,o),
(734,573,o),
(584,110,c),
(131,1500,l),
(85,1500,l),
(573,0,l),
(594,0,l),
(1046,1391,l),
(1496,0,l),
(1517,0,l),
(2003,1500,l)
);
},
{
closed = 1;
nodes = (
(457,579,o),
(432,502,o),
(442,448,cs),
(447,421,o),
(483,260,o),
(535,260,cs),
(598,260,o),
(662,347,o),
(662,451,cs),
(662,490,o),
(666,579,o),
(542,579,cs)
);
},
{
closed = 1;
nodes = (
(538,292,o),
(508,238,o),
(515,195,cs),
(519,173,o),
(552,92,o),
(589,92,cs),
(634,92,o),
(650,182,o),
(650,195,cs),
(650,226,o),
(644,308,o),
(567,296,cs)
);
},
{
closed = 1;
nodes = (
(1516,366,o),
(1475,319,o),
(1474,276,cs),
(1473,253,o),
(1488,167,o),
(1524,160,cs),
(1568,150,o),
(1574,235,o),
(1576,248,cs),
(1583,278,o),
(1623,359,o),
(1545,364,cs)
);
}
);
width = 2088;
}
);
unicode = (87,119);
},
{
glyphname = X;
lastChange = "2023-03-10 18:44:40 +0000";
layers = (
{
layerId = "5FFCF0B5-D422-4BE5-8BC5-6DA1EDB7DC6B";
shapes = (
{
closed = 1;
nodes = (
(1295,1500,l),
(1240,1500,l),
(713,812,l),
(185,1500,l),
(130,1500,l),
(683,779,l),
(85,0,l),
(140,0,l),
(712,744,l),
(1283,0,l),
(1338,0,l),
(741,778,l)
);
},
{
closed = 1;
nodes = (
(720,744,o),
(776,705,o),
(774,722,cs),
(772,736,o),
(710,762,o),
(702,763,cs),
(694,764,o),
(668,762,o),
(672,753,cs),
(675,746,o),
(702,751,o),
(712,747,cs)
);
},
{
closed = 1;
nodes = (
(645,668,o),
(681,713,o),
(678,722,cs),
(675,732,o),
(672,734,o),
(666,734,cs),
(650,734,o),
(590,633,o),
(586,614,cs),
(583,599,o),
(615,632,o),
(630,650,cs)
);
},
{
closed = 1;
nodes = (
(847,615,o),
(836,619,o),
(810,653,cs),
(794,674,o),
(756,729,o),
(739,720,cs),
(735,718,o),
(758,692,o),
(774,671,cs),
(789,652,o),
(830,606,o),
(836,609,cs)
);
},
{
closed = 1;
nodes = (
(586,620,o),
(581,630,o),
(635,661,cs),
(651,671,o),
(720,765,o),
(707,783,cs),
(694,802,o),
(626,689,o),
(609,674,cs),
(603,668,o),
(564,620,o),
(572,620,cs)
);
}
);
width = 1423;
},
{
layerId = "EE4C669A-5906-4A8E-97F5-76C9C8877141";
shapes = (
{
closed = 1;
nodes = (
(1295,1500,l),
(1240,1500,l),
(713,812,l),
(185,1500,l),
(130,1500,l),
(683,779,l),
(85,0,l),
(140,0,l),
(712,744,l),
(1283,0,l),
(1338,0,l),
(741,778,l)
);
},
{
closed = 1;
nodes = (
(802,484,o),
(807,500,o),
(785,581,cs),
(764,661,o),
(725,767,o),
(702,763,cs),
(671,759,o),
(691,656,o),
(701,620,cs),
(725,539,o),
(734,484,o),
(770,484,cs)
);
},
{
closed = 1;
nodes = (
(713,517,o),
(708,538,o),
(706,606,cs),
(705,637,o),
(698,730,o),
(666,734,cs),
(635,737,o),
(616,660,o),
(603,599,cs),
(591,539,o),
(609,517,o),
(630,517,cs)
);
},
{
closed = 1;
nodes = (
(827,599,o),
(836,619,o),
(810,653,cs),
(794,674,o),
(751,724,o),
(732,717,cs),
(715,712,o),
(726,680,o),
(737,656,cs),
(747,632,o),
(788,589,o),
(799,592,cs)
);
},
{
closed = 1;
nodes = (
(540,644,o),
(563,654,o),
(617,685,cs),
(633,695,o),
(715,770,o),
(702,788,cs),
(689,807,o),
(599,800,o),
(547,767,cs),
(494,735,o),
(515,685,o),
(522,672,cs)
);
}
);
width = 1423;
}
);
unicode = (88,120);
},
{
glyphname = Y;
lastChange = "2023-03-10 18:44:40 +0000";
layers = (
{
layerId = "5FFCF0B5-D422-4BE5-8BC5-6DA1EDB7DC6B";
shapes = (
{
closed = 1;
nodes = (
(1293,1500,l),
(1240,1500,l),
(674,686,l),
(108,1500,l),
(55,1500,l),
(651,641,l),
(651,0,l),
(695,0,l),
(695,641,l)
);
},
{
closed = 1;
nodes = (
(653,615,o),
(661,444,o),
(661,428,cs),
(661,393,o),
(660,342,o),
(685,344,cs),
(696,345,o),
(694,443,o),
(693,457,cs),
(692,473,o),
(695,615,o),
(674,615,cs)
);
},
{
closed = 1;
nodes = (
(679,186,o),
(688,222,o),
(688,264,cs),
(688,305,o),
(677,341,o),
(664,341,cs),
(652,341,o),
(656,300,o),
(656,259,cs),
(656,217,o),
(651,186,o),
(671,186,cs)
);
},
{
closed = 1;
nodes = (
(691,192,o),
(694,224,o),
(694,266,cs),
(694,307,o),
(694,329,o),
(688,329,cs),
(674,329,o),
(673,303,o),
(673,262,cs),
(673,220,o),
(673,194,o),
(684,193,cs)
);
},
{
closed = 1;
nodes = (
(665,20,o),
(675,5,o),
(685,17,cs),
(690,23,o),
(678,116,o),
(673,129,cs),
(671,134,o),
(666,137,o),
(656,136,cs),
(649,135,o),
(651,100,o),
(659,54,cs)
);
},
{
closed = 1;
nodes = (
(664,243,o),
(669,191,o),
(671,116,cs),
(673,42,o),
(674,4,o),
(684,11,cs),
(692,17,o),
(696,22,o),
(694,96,cs),
(693,171,o),
(684,243,o),
(675,243,cs)
);
},
{
closed = 1;
nodes = (
(658,128,o),
(674,112,o),
(679,115,cs),
(689,121,o),
(681,212,o),
(674,217,cs),
(666,223,o),
(661,216,o),
(655,214,cs),
(652,213,o),
(655,172,o),
(657,142,cs)
);
},
{
closed = 1;
nodes = (
(678,309,o),
(676,334,o),
(676,364,cs),
(676,393,o),
(672,418,o),
(665,418,cs),
(656,418,o),
(654,368,o),
(654,363,cs),
(654,358,o),
(657,308,o),
(663,308,cs)
);
}
);
width = 1348;
},
{
layerId = "EE4C669A-5906-4A8E-97F5-76C9C8877141";
shapes = (
{
closed = 1;
nodes = (
(1293,1500,l),
(1240,1500,l),
(674,686,l),
(108,1500,l),
(55,1500,l),
(651,641,l),
(651,0,l),
(695,0,l),
(695,641,l)
);
},
{
closed = 1;
nodes = (
(662,614,o),
(651,483,o),
(669,428,cs),
(696,344,o),
(749,339,o),
(793,353,cs),
(830,365,o),
(858,405,o),
(848,452,cs),
(831,531,o),
(768,589,o),
(700,605,cs)
);
},
{
closed = 1;
nodes = (
(656,189,o),
(688,222,o),
(688,264,cs),
(688,305,o),
(656,338,o),
(615,338,cs),
(577,338,o),
(545,305,o),
(545,264,cs),
(545,222,o),
(577,189,o),
(615,189,cs)
);
},
{
closed = 1;
nodes = (
(784,187,o),
(816,220,o),
(816,262,cs),
(816,303,o),
(784,336,o),
(743,336,cs),
(705,336,o),
(673,303,o),
(673,262,cs),
(673,220,o),
(705,187,o),
(743,187,cs)
);
},
{
closed = 1;
nodes = (
(542,-48,o),
(617,-54,o),
(651,-8,cs),
(684,37,o),
(680,96,o),
(643,123,cs),
(605,150,o),
(548,136,o),
(515,91,cs),
(482,45,o),
(484,-1,o),
(520,-30,cs)
);
},
{
closed = 1;
nodes = (
(654,258,o),
(669,191,o),
(671,116,cs),
(673,42,o),
(663,-15,o),
(749,-26,cs),
(835,-37,o),
(901,17,o),
(899,91,cs),
(898,166,o),
(825,237,o),
(740,247,cs)
);
},
{
closed = 1;
nodes = (
(582,105,o),
(640,88,o),
(661,117,cs),
(682,146,o),
(670,197,o),
(646,214,cs),
(622,231,o),
(580,229,o),
(559,200,cs),
(538,171,o),
(545,135,o),
(568,116,cs)
);
},
{
closed = 1;
nodes = (
(653,311,o),
(676,334,o),
(676,364,cs),
(676,393,o),
(653,416,o),
(624,416,cs),
(598,416,o),
(575,393,o),
(575,364,cs),
(575,334,o),
(598,311,o),
(624,311,cs)
);
}
);
width = 1348;
}
);
unicode = (89,121);
},
{
glyphname = Z;
lastChange = "2023-03-10 18:44:40 +0000";
layers = (
{
layerId = "5FFCF0B5-D422-4BE5-8BC5-6DA1EDB7DC6B";
shapes = (
{
closed = 1;
nodes = (
(162,42,l),
(1182,1448,l),
(1182,1500,l),
(145,1500,l),
(145,1458,l),
(1135,1458,l),
(105,42,l),
(105,0,l),
(1202,0,l),
(1202,42,l)
);
},
{
closed = 1;
nodes = (
(905,1462,o),
(940,1457,o),
(940,1466,cs),
(940,1472,o),
(915,1473,o),
(882,1480,cs),
(853,1483,o),
(816,1482,o),
(813,1472,cs),
(809,1460,o),
(815,1462,o),
(879,1462,cs)
);
},
{
closed = 1;
nodes = (
(576,1461,o),
(599,1460,o),
(599,1464,cs),
(599,1467,o),
(600,1467,o),
(575,1471,cs),
(552,1475,o),
(518,1480,o),
(516,1471,cs),
(514,1461,o),
(512,1461,o),
(561,1461,cs)
);
},
{
closed = 1;
nodes = (
(719,1461,o),
(787,1459,o),
(787,1467,cs),
(787,1471,o),
(743,1472,o),
(710,1477,cs),
(681,1482,o),
(652,1473,o),
(650,1466,cs),
(647,1457,o),
(672,1464,o),
(701,1462,cs)
);
}
);
width = 1307;
},
{
layerId = "EE4C669A-5906-4A8E-97F5-76C9C8877141";
shapes = (
{
closed = 1;
nodes = (
(162,42,l),
(1182,1448,l),
(1182,1500,l),
(145,1500,l),
(145,1458,l),
(1135,1458,l),
(105,42,l),
(105,0,l),
(1202,0,l),
(1202,42,l)
);
},
{
closed = 1;
nodes = (
(903,1296,o),
(948,1320,o),
(943,1365,cs),
(940,1395,o),
(915,1473,o),
(882,1480,cs),
(853,1483,o),
(817,1407,o),
(814,1383,cs),
(809,1354,o),
(813,1296,o),
(877,1296,cs)
);
},
{
closed = 1;
nodes = (
(586,1325,o),
(617,1335,o),
(617,1374,cs),
(617,1412,o),
(600,1467,o),
(575,1471,cs),
(552,1475,o),
(525,1415,o),
(522,1397,cs),
(518,1375,o),
(516,1325,o),
(565,1325,cs)
);
},
{
closed = 1;
nodes = (
(818,1212,o),
(819,1279,o),
(800,1341,cs),
(793,1363,o),
(743,1472,o),
(710,1477,cs),
(681,1482,o),
(637,1380,o),
(637,1328,cs),
(637,1261,o),
(650,1212,o),
(714,1212,cs)
);
}
);
width = 1307;
}
);
unicode = (90,122);
},
{
glyphname = zero;
lastChange = "2023-03-10 04:59:45 +0000";
layers = (
{
layerId = "5FFCF0B5-D422-4BE5-8BC5-6DA1EDB7DC6B";
shapes = (
{
closed = 1;
nodes = (
(930,153,o),
(1039,502,o),
(1039,751,qs),
(1039,999,o),
(929,1347,o),
(721,1530,o),
(572,1530,qs),
(424,1530,o),
(215,1347,o),
(105,999,o),
(105,751,qs),
(105,502,o),
(214,153,o),
(423,-30,o),
(572,-30,qs),
(721,-30,o)
);
},
{
closed = 1;
nodes = (
(150,405,o),
(150,751,qs),
(150,1097,o),
(374,1488,o),
(572,1488,qs),
(770,1488,o),
(994,1097,o),
(994,751,qs),
(994,405,o),
(770,12,o),
(572,12,qs),
(374,12,o)
);
},
{
closed = 1;
nodes = (
(297,1379,o),
(360,1430,o),
(344,1433,cs),
(320,1437,o),
(247,1354,o),
(236,1307,cs),
(224,1245,o),
(278,1331,o),
(287,1354,cs)
);
},
{
closed = 1;
nodes = (
(199,1213,o),
(186,1155,o),
(168,1082,cs),
(151,1010,o),
(135,957,o),
(145,959,cs),
(162,963,o),
(166,1031,o),
(176,1065,cs),
(188,1107,o),
(233,1206,o),
(214,1210,cs)
);
},
{
closed = 1;
nodes = (
(153,730,o),
(145,770,o),
(145,812,cs),
(145,853,o),
(160,924,o),
(151,924,cs),
(113,924,o),
(116,846,o),
(116,805,cs),
(116,763,o),
(116,730,o),
(140,730,cs)
);
},
{
closed = 1;
nodes = (
(160,464,o),
(160,522,o),
(153,573,cs),
(148,613,o),
(154,704,o),
(136,702,cs),
(118,700,o),
(129,629,o),
(129,588,cs),
(129,546,o),
(129,464,o),
(149,464,cs)
);
}
);
width = 1144;
},
{
layerId = "EE4C669A-5906-4A8E-97F5-76C9C8877141";
shapes = (
{
closed = 1;
nodes = (
(930,153,o),
(1039,502,o),
(1039,751,qs),
(1039,999,o),
(929,1347,o),
(721,1530,o),
(572,1530,qs),
(424,1530,o),
(215,1347,o),
(105,999,o),
(105,751,qs),
(105,502,o),
(214,153,o),
(423,-30,o),
(572,-30,qs),
(721,-30,o)
);
},
{
closed = 1;
nodes = (
(150,405,o),
(150,751,qs),
(150,1097,o),
(374,1488,o),
(572,1488,qs),
(770,1488,o),
(994,1097,o),
(994,751,qs),
(994,405,o),
(770,12,o),
(572,12,qs),
(374,12,o)
);
},
{
closed = 1;
nodes = (
(509,1124,o),
(419,1421,o),
(344,1433,cs),
(320,1436,o),
(266,1341,o),
(255,1294,cs),
(243,1232,o),
(296,1182,o),
(320,1175,cs)
);
},
{
closed = 1;
nodes = (
(188,1223,o),
(186,1155,o),
(168,1082,cs),
(151,1010,o),
(126,957,o),
(207,924,cs),
(287,892,o),
(365,927,o),
(382,999,cs),
(400,1071,o),
(348,1159,o),
(269,1190,cs)
);
},
{
closed = 1;
nodes = (
(227,730,o),
(259,763,o),
(259,805,cs),
(259,846,o),
(192,924,o),
(151,924,cs),
(113,924,o),
(116,846,o),
(116,805,cs),
(116,763,o),
(148,730,o),
(186,730,cs)
);
},
{
closed = 1;
nodes = (
(240,468,o),
(297,505,o),
(272,588,cs),
(260,627,o),
(205,707,o),
(164,707,cs),
(126,707,o),
(129,629,o),
(129,588,cs),
(129,546,o),
(161,468,o),
(199,468,cs)
);
}
);
width = 1144;
}
);
unicode = 48;
},
{
glyphname = one;
lastChange = "2023-03-10 05:01:34 +0000";
layers = (
{
layerId = "5FFCF0B5-D422-4BE5-8BC5-6DA1EDB7DC6B";
shapes = (
{
closed = 1;
nodes = (
(470,0,l),
(470,1500,l),
(427,1500,l),
(105,1383,l),
(120,1344,l),
(426,1455,l),
(426,0,l)
);
},
{
closed = 1;
nodes = (
(463,2,o),
(467,15,o),
(468,27,cs),
(469,45,o),
(461,68,o),
(449,72,cs),
(442,74,o),
(429,46,o),
(429,27,cs),
(429,11,o),
(445,2,o),
(455,2,cs)
);
},
{
closed = 1;
nodes = (
(455,48,o),
(449,71,o),
(449,101,cs),
(449,132,o),
(453,216,o),
(446,216,cs),
(436,216,o),
(432,132,o),
(432,101,cs),
(432,71,o),
(429,46,o),
(444,47,cs)
);
},
{
closed = 1;
nodes = (
(474,5,o),
(466,22,o),
(466,63,cs),
(466,105,o),
(473,155,o),
(463,155,cs),
(439,155,o),
(457,90,o),
(457,48,cs),
(457,7,o),
(459,1,o),
(463,2,cs)
);
}
);
width = 675;
},
{
layerId = "EE4C669A-5906-4A8E-97F5-76C9C8877141";
shapes = (
{
closed = 1;
nodes = (
(470,0,l),
(470,1500,l),
(427,1500,l),
(105,1383,l),
(120,1344,l),
(426,1455,l),
(426,0,l)
);
},
{
closed = 1;
nodes = (
(462,-134,o),
(501,-120,o),
(501,-32,cs),
(501,26,o),
(462,52,o),
(417,72,cs),
(369,93,o),
(301,52,o),
(320,-38,cs),
(330,-86,o),
(366,-134,o),
(417,-134,cs)
);
},
{
closed = 1;
nodes = (
(424,47,o),
(449,71,o),
(449,101,cs),
(449,132,o),
(460,216,o),
(430,216,cs),
(399,216,o),
(339,132,o),
(339,101,cs),
(339,71,o),
(363,47,o),
(394,47,cs)
);
},
{
closed = 1;
nodes = (
(569,-48,o),
(601,-15,o),
(601,26,cs),
(601,68,o),
(507,155,o),
(469,155,cs),
(428,155,o),
(458,68,o),
(458,26,cs),
(458,-15,o),
(490,-48,o),
(531,-48,cs)
);
}
);
width = 675;
}
);
unicode = 49;
},
{
glyphname = two;
lastChange = "2023-03-10 05:58:36 +0000";
layers = (
{
layerId = "5FFCF0B5-D422-4BE5-8BC5-6DA1EDB7DC6B";
shapes = (
{
closed = 1;
nodes = (
(290,42,l),
(469,185,o),
(742,464,o),
(927,732,o),
(1022,983,o),
(1022,1098,qs),
(1022,1223,o),
(918,1418,o),
(734,1530,o),
(614,1530,qs),
(479,1530,o),
(253,1383,o),
(185,1252,q),
(224,1232,l),
(288,1352,o),
(497,1488,o),
(618,1488,qs),
(723,1488,o),
(885,1387,o),
(977,1209,o),
(977,1092,qs),
(977,982,o),
(887,745,o),
(703,486,o),
(421,201,o),
(229,42,q),
(229,0,l),
(1075,0,l),
(1075,42,l)
);
},
{
closed = 1;
nodes = (
(857,1398,o),
(942,1307,o),
(942,1314,cs),
(942,1329,o),
(909,1366,o),
(893,1382,cs),
(892,1383,o),
(859,1410,o),
(858,1405,cs)
);
},
{
closed = 1;
nodes = (
(320,1394,o),
(300,1367,o),
(307,1360,cs),
(311,1356,o),
(328,1385,o),
(388,1425,cs),
(425,1450,o),
(474,1464,o),
(472,1471,cs),
(469,1484,o),
(417,1475,o),
(357,1424,cs)
);
},
{
closed = 1;
nodes = (
(598,1496,o),
(559,1492,o),
(551,1487,cs),
(541,1481,o),
(573,1494,o),
(632,1490,cs),
(670,1487,o),
(731,1476,o),
(731,1476,cs),
(731,1482,o),
(717,1496,o),
(632,1496,cs)
);
},
{
closed = 1;
nodes = (
(467,1503,o),
(456,1471,o),
(456,1464,cs),
(456,1455,o),
(468,1475,o),
(537,1486,cs),
(597,1496,o),
(613,1490,o),
(610,1497,cs),
(606,1506,o),
(603,1507,o),
(537,1505,cs)
);
}
);
width = 1250;
},
{
layerId = "EE4C669A-5906-4A8E-97F5-76C9C8877141";
shapes = (
{
closed = 1;
nodes = (
(290,42,l),
(469,185,o),
(742,464,o),
(927,732,o),
(1022,983,o),
(1022,1098,qs),
(1022,1223,o),
(918,1418,o),
(734,1530,o),
(614,1530,qs),
(479,1530,o),
(253,1383,o),
(185,1252,q),
(224,1232,l),
(288,1352,o),
(497,1488,o),
(618,1488,qs),
(723,1488,o),
(885,1387,o),
(977,1209,o),
(977,1092,qs),
(977,982,o),
(887,745,o),
(703,486,o),
(421,201,o),
(229,42,q),
(229,0,l),
(1075,0,l),
(1075,42,l)
);
},
{
closed = 1;
nodes = (
(816,1281,o),
(938,1268,o),
(942,1314,cs),
(944,1329,o),
(911,1368,o),
(893,1382,cs),
(841,1420,o),
(829,1387,o),
(827,1372,cs)
);
},
{
closed = 1;
nodes = (
(320,1394,o),
(297,1355,o),
(326,1342,cs),
(347,1332,o),
(385,1307,o),
(445,1347,cs),
(482,1372,o),
(492,1435,o),
(479,1455,cs),
(463,1479,o),
(417,1475,o),
(357,1424,cs)
);
},
{
closed = 1;
nodes = (
(598,1496,o),
(562,1483,o),
(555,1443,cs),
(551,1420,o),
(568,1364,o),
(627,1360,cs),
(665,1357,o),
(724,1391,o),
(724,1431,cs),
(724,1451,o),
(717,1496,o),
(632,1496,cs)
);
},
{
closed = 1;
nodes = (
(467,1503,o),
(463,1448,o),
(467,1422,cs),
(472,1397,o),
(473,1317,o),
(542,1328,cs),
(602,1338,o),
(610,1414,o),
(610,1436,cs),
(610,1480,o),
(603,1507,o),
(537,1505,cs)
);
}
);
width = 1250;
}
);
unicode = 50;
},
{
glyphname = three;
lastChange = "2023-03-10 06:02:18 +0000";
layers = (
{
layerId = "5FFCF0B5-D422-4BE5-8BC5-6DA1EDB7DC6B";
shapes = (
{
closed = 1;
nodes = (
(471,-30,o),
(588,-30,qs),
(721,-30,o),
(926,80,o),
(1043,273,o),
(1043,397,qs),
(1043,558,o),
(845,765,o),
(673,790,q),
(808,826,o),
(986,1034,o),
(986,1172,qs),
(986,1275,o),
(883,1437,o),
(704,1530,o),
(589,1530,qs),
(483,1530,o),
(293,1448,o),
(218,1371,q),
(250,1340,l),
(318,1411,o),
(493,1488,o),
(588,1488,qs),
(689,1488,o),
(849,1404,o),
(941,1258,o),
(941,1164,qs),
(941,1061,o),
(828,900,o),
(631,808,o),
(505,808,qs),
(463,808,l),
(463,766,l),
(505,766,ls),
(737,766,o),
(998,573,o),
(998,397,qs),
(998,285,o),
(894,111,o),
(712,12,o),
(594,12,qs),
(485,12,o),
(285,100,o),
(204,182,q),
(175,150,l),
(261,62,o)
);
},
{
closed = 1;
nodes = (
(512,771,o),
(518,765,o),
(518,774,cs),
(518,780,o),
(489,785,o),
(482,785,cs),
(472,785,o),
(468,782,o),
(466,774,cs),
(464,764,o),
(481,771,o),
(488,771,cs)
);
},
{
closed = 1;
nodes = (
(625,769,o),
(646,755,o),
(649,761,cs),
(655,773,o),
(614,783,o),
(578,791,cs),
(548,798,o),
(548,783,o),
(545,779,cs),
(540,772,o),
(559,766,o),
(597,768,cs)
);
},
{
closed = 1;
nodes = (
(940,619,o),
(949,605,o),
(960,620,cs),
(975,641,o),
(864,719,o),
(828,727,cs),
(798,734,o),
(826,703,o),
(845,691,cs),
(860,681,o),
(864,678,o),
(912,641,cs)
);
},
{
closed = 1;
nodes = (
(775,727,o),
(804,709,o),
(801,718,cs),
(796,734,o),
(784,740,o),
(748,752,cs),
(718,762,o),
(695,769,o),
(689,758,cs),
(683,747,o),
(727,740,o),
(749,734,cs)
);
}
);
width = 1218;
},
{
layerId = "EE4C669A-5906-4A8E-97F5-76C9C8877141";
shapes = (
{
closed = 1;
nodes = (
(471,-30,o),
(588,-30,qs),
(721,-30,o),
(926,80,o),
(1043,273,o),
(1043,397,qs),
(1043,558,o),
(845,765,o),
(673,790,q),
(808,826,o),
(986,1034,o),
(986,1172,qs),
(986,1275,o),
(883,1437,o),
(704,1530,o),
(589,1530,qs),
(483,1530,o),
(293,1448,o),
(218,1371,q),
(250,1340,l),
(318,1411,o),
(493,1488,o),
(588,1488,qs),
(689,1488,o),
(849,1404,o),
(941,1258,o),
(941,1164,qs),
(941,1061,o),
(828,900,o),
(631,808,o),
(505,808,qs),
(463,808,l),
(463,766,l),
(505,766,ls),
(737,766,o),
(998,573,o),
(998,397,qs),
(998,285,o),
(894,111,o),
(712,12,o),
(594,12,qs),
(485,12,o),
(285,100,o),
(204,182,q),
(175,150,l),
(261,62,o)
);
},
{
closed = 1;
nodes = (
(504,498,o),
(505,538,o),
(505,606,cs),
(505,642,o),
(517,774,o),
(482,785,cs),
(451,789,o),
(412,671,o),
(409,634,cs),
(404,589,o),
(408,498,o),
(476,498,cs)
);
},
{
closed = 1;
nodes = (
(601,507,o),
(649,547,o),
(649,615,cs),
(649,651,o),
(614,783,o),
(578,791,cs),
(548,798,o),
(541,674,o),
(537,637,cs),
(533,592,o),
(505,507,o),
(573,507,cs)
);
},
{
closed = 1;
nodes = (
(851,465,o),
(885,483,o),
(885,551,cs),
(885,587,o),
(864,719,o),
(828,727,cs),
(798,734,o),
(802,610,o),
(798,573,cs),
(794,528,o),
(755,465,o),
(823,465,cs)
);
},
{
closed = 1;
nodes = (
(771,408,o),
(772,566,o),
(772,634,cs),
(772,670,o),
(784,744,o),
(748,752,cs),
(718,759,o),
(679,641,o),
(675,604,cs),
(671,559,o),
(675,408,o),
(743,408,cs)
);
}
);
width = 1218;
}
);
unicode = 51;
},
{
glyphname = four;
lastChange = "2023-03-10 06:03:35 +0000";
layers = (
{
layerId = "5FFCF0B5-D422-4BE5-8BC5-6DA1EDB7DC6B";
shapes = (
{
closed = 1;
nodes = (
(1121,411,l),
(1121,452,l),
(938,452,l),
(938,1500,l),
(894,1500,l),
(105,453,l),
(105,411,l),
(894,411,l),
(894,0,l),
(938,0,l),
(938,411,l)
);
},
{
closed = 1;
nodes = (
(894,452,l),
(157,452,l),
(894,1429,l)
);
},
{
closed = 1;
nodes = (
(901,792,o),
(901,737,o),
(900,691,cs),
(897,542,o),
(905,535,o),
(919,536,cs),
(935,537,o),
(934,600,o),
(934,658,cs),
(934,703,o),
(944,785,o),
(926,788,cs)
);
},
{
closed = 1;
nodes = (
(901,811,o),
(919,610,o),
(916,562,cs),
(914,525,o),
(901,417,o),
(918,417,cs),
(946,417,o),
(928,688,o),
(930,734,cs),
(933,780,o),
(926,811,o),
(913,811,cs)
);
}
);
width = 1226;
},
{
layerId = "EE4C669A-5906-4A8E-97F5-76C9C8877141";
shapes = (
{
closed = 1;
nodes = (
(1121,411,l),
(1121,452,l),
(938,452,l),
(938,1500,l),
(894,1500,l),
(105,453,l),
(105,411,l),
(894,411,l),
(894,0,l),
(938,0,l),
(938,411,l)
);
},
{
closed = 1;
nodes = (
(894,452,l),
(157,452,l),
(894,1429,l)
);
},
{
closed = 1;
nodes = (
(759,795,o),
(705,775,o),
(689,732,cs),
(635,585,o),
(734,576,o),
(780,560,cs),
(825,544,o),
(794,644,o),
(810,687,cs),
(827,729,o),
(850,762,o),
(803,779,cs)
);
},
{
closed = 1;
nodes = (
(823,813,o),
(751,625,o),
(750,578,cs),
(744,422,o),
(823,409,o),
(906,449,cs),
(952,471,o),
(903,680,o),
(905,726,cs),
(908,772,o),
(919,810,o),
(870,811,cs)
);
}
);
width = 1226;
}
);
unicode = 52;
},
{
glyphname = five;
lastChange = "2023-03-10 06:20:21 +0000";
layers = (
{
layerId = "5FFCF0B5-D422-4BE5-8BC5-6DA1EDB7DC6B";
shapes = (
{
closed = 1;
nodes = (
(375,-30,o),
(506,-30,qs),
(649,-30,o),
(864,90,o),
(984,306,o),
(984,449,qs),
(984,593,o),
(864,808,o),
(649,927,o),
(506,927,qs),
(367,927,o),
(260,870,q),
(320,1458,l),
(938,1458,l),
(938,1500,l),
(279,1500,l),
(213,833,l),
(243,808,l),
(297,846,o),
(430,885,o),
(505,885,qs),
(636,885,o),
(831,776,o),
(939,580,o),
(939,449,qs),
(939,318,o),
(830,121,o),
(635,12,o),
(504,12,qs),
(385,12,o),
(196,108,o),
(139,198,q),
(105,169,l),
(167,73,o)
);
},
{
closed = 1;
nodes = (
(748,1466,o),
(826,1464,o),
(815,1476,cs),
(806,1486,o),
(736,1490,o),
(687,1488,cs),
(659,1487,o),
(628,1482,o),
(624,1475,cs),
(618,1463,o),
(668,1462,o),
(708,1464,cs)
);
},
{
closed = 1;
nodes = (
(562,1473,o),
(568,1484,o),
(525,1484,cs),
(516,1484,o),
(486,1485,o),
(486,1464,cs),
(486,1453,o),
(511,1462,o),
(526,1465,cs)
);
},
{
closed = 1;
nodes = (
(371,1473,o),
(441,1479,o),
(437,1488,cs),
(437,1488,o),
(403,1489,o),
(334,1489,cs),
(284,1489,o),
(280,1485,o),
(283,1472,cs),
(284,1468,o),
(279,1460,o),
(322,1466,cs)
);
}
);
width = 1089;
},
{
layerId = "EE4C669A-5906-4A8E-97F5-76C9C8877141";
shapes = (
{
closed = 1;
nodes = (
(375,-30,o),
(506,-30,qs),
(649,-30,o),
(864,90,o),
(984,306,o),
(984,449,qs),
(984,593,o),
(864,808,o),
(649,927,o),
(506,927,qs),
(367,927,o),
(260,870,q),
(320,1458,l),
(938,1458,l),
(938,1500,l),
(279,1500,l),
(213,833,l),
(243,808,l),
(297,846,o),
(430,885,o),
(505,885,qs),
(636,885,o),
(831,776,o),
(939,580,o),
(939,449,qs),
(939,318,o),
(830,121,o),
(635,12,o),
(504,12,qs),
(385,12,o),
(196,108,o),
(139,198,q),
(105,169,l),
(167,73,o)
);
},
{
closed = 1;
nodes = (
(754,1179,o),
(832,1310,o),
(786,1389,cs),
(772,1413,o),
(724,1486,o),
(683,1472,cs),
(656,1461,o),
(626,1404,o),
(618,1389,cs),
(568,1295,o),
(617,1253,o),
(657,1231,cs)
);
},
{
closed = 1;
nodes = (
(639,1389,o),
(566,1500,o),
(523,1480,cs),
(509,1474,o),
(501,1426,o),
(499,1404,cs),
(492,1340,o),
(540,1347,o),
(555,1353,cs)
);
},
{
closed = 1;
nodes = (
(568,1091,o),
(557,1242,o),
(506,1324,cs),
(452,1411,o),
(395,1492,o),
(334,1475,cs),
(284,1462,o),
(293,1297,o),
(293,1270,cs),
(293,1141,o),
(366,1037,o),
(448,1059,cs)
);
}
);
width = 1089;
}
);
unicode = 53;
},
{
glyphname = six;
lastChange = "2023-03-10 06:08:29 +0000";
layers = (
{
layerId = "5FFCF0B5-D422-4BE5-8BC5-6DA1EDB7DC6B";
shapes = (
{
closed = 1;
nodes = (
(884,86,o),
(998,291,o),
(998,423,qs),
(998,555,o),
(886,758,o),
(689,874,o),
(562,874,qs),
(418,874,o),
(200,722,o),
(148,588,q),
(172,756,o),
(325,1084,o),
(560,1366,o),
(708,1466,q),
(684,1500,l),
(557,1416,o),
(344,1184,o),
(190,914,o),
(105,627,o),
(105,488,qs),
(105,330,o),
(215,97,o),
(415,-30,o),
(551,-30,qs),
(683,-30,o)
);
},
{
closed = 1;
nodes = (
(264,120,o),
(159,306,o),
(159,422,qs),
(159,539,o),
(265,725,o),
(447,833,o),
(562,833,qs),
(676,833,o),
(852,728,o),
(953,544,o),
(953,426,qs),
(953,307,o),
(850,119,o),
(672,12,o),
(559,12,qs),
(446,12,o)
);
},
{
closed = 1;
nodes = (
(651,816,o),
(723,815,o),
(756,796,cs),
(809,765,o),
(836,722,o),
(850,732,cs),
(863,741,o),
(785,809,o),
(773,814,cs),
(746,828,o),
(674,862,o),
(661,836,cs)
);
},
{
closed = 1;
nodes = (
(817,747,o),
(846,718,o),
(868,696,cs),
(883,681,o),
(910,646,o),
(924,652,cs),
(932,656,o),
(903,695,o),
(892,707,cs),
(880,721,o),
(845,765,o),
(828,754,cs)
);
},
{
closed = 1;
nodes = (
(890,643,o),
(960,601,o),
(954,491,cs),
(951,427,o),
(965,421,o),
(982,421,cs),
(1011,421,o),
(965,589,o),
(962,597,cs),
(956,616,o),
(932,665,o),
(907,652,cs)
);
}
);
width = 1103;
},
{
layerId = "EE4C669A-5906-4A8E-97F5-76C9C8877141";
shapes = (
{
closed = 1;
nodes = (
(884,86,o),
(998,291,o),
(998,423,qs),
(998,555,o),
(886,758,o),
(689,874,o),
(562,874,qs),
(418,874,o),
(200,722,o),
(148,588,q),
(172,756,o),
(325,1084,o),
(560,1366,o),
(708,1466,q),
(684,1500,l),
(557,1416,o),
(344,1184,o),
(190,914,o),
(105,627,o),
(105,488,qs),
(105,330,o),
(215,97,o),
(415,-30,o),
(551,-30,qs),
(683,-30,o)
);
},
{
closed = 1;
nodes = (
(264,120,o),
(159,306,o),
(159,422,qs),
(159,539,o),
(265,725,o),
(447,833,o),
(562,833,qs),
(676,833,o),
(852,728,o),
(953,544,o),
(953,426,qs),
(953,307,o),
(850,119,o),
(672,12,o),
(559,12,qs),
(446,12,o)
);
},
{
closed = 1;
nodes = (
(622,742,o),
(654,696,o),
(696,682,cs),
(753,663,o),
(813,682,o),
(829,714,cs),
(850,754,o),
(770,782,o),
(758,787,cs),
(731,801,o),
(663,859,o),
(638,788,cs)
);
},
{
closed = 1;
nodes = (
(798,728,o),
(797,686,o),
(811,659,cs),
(837,609,o),
(876,620,o),
(895,633,cs),
(919,650,o),
(884,693,o),
(880,700,cs),
(869,717,o),
(850,775,o),
(813,741,cs)
);
},
{
closed = 1;
nodes = (
(875,638,o),
(837,576,o),
(831,466,cs),
(828,402,o),
(919,378,o),
(947,421,cs),
(965,448,o),
(949,582,o),
(946,590,cs),
(940,609,o),
(937,670,o),
(892,647,cs)
);
}
);
width = 1103;
}
);
unicode = 54;
},
{
glyphname = seven;
lastChange = "2023-03-10 06:10:25 +0000";
layers = (
{
layerId = "5FFCF0B5-D422-4BE5-8BC5-6DA1EDB7DC6B";
shapes = (
{
closed = 1;
nodes = (
(949,1500,l),
(105,1500,l),
(105,1458,l),
(901,1458,l),
(300,0,l),
(347,0,l),
(949,1458,l)
);
},
{
closed = 1;
nodes = (
(110,1464,o),
(191,1465,o),
(226,1465,cs),
(251,1465,o),
(363,1461,o),
(363,1467,cs),
(363,1479,o),
(286,1484,o),
(211,1484,cs),
(134,1482,o),
(110,1482,o),
(110,1471,cs)
);
},
{
closed = 1;
nodes = (
(299,1496,o),
(277,1495,o),
(202,1495,cs),
(118,1495,o),
(108,1492,o),
(110,1483,cs),
(114,1465,o),
(167,1461,o),
(215,1461,cs),
(265,1462,o),
(299,1471,o),
(299,1483,cs)
);
},
{
closed = 1;
nodes = (
(469,1498,o),
(394,1497,o),
(354,1496,cs),
(311,1495,o),
(277,1499,o),
(277,1487,cs),
(277,1477,o),
(351,1473,o),
(395,1473,cs),
(439,1473,o),
(469,1473,o),
(469,1487,cs)
);
}
);
width = 1054;
},
{
layerId = "EE4C669A-5906-4A8E-97F5-76C9C8877141";
shapes = (
{
closed = 1;
nodes = (
(949,1500,l),
(105,1500,l),
(105,1458,l),
(901,1458,l),
(300,0,l),
(347,0,l),
(949,1458,l)
);
},
{
closed = 1;
nodes = (
(70,1322,o),
(135,1252,o),
(211,1252,cs),
(306,1252,o),
(371,1323,o),
(356,1409,cs),
(342,1496,o),
(286,1484,o),
(211,1484,cs),
(134,1482,o),
(90,1497,o),
(80,1408,cs)
);
},
{
closed = 1;
nodes = (
(305,1538,o),
(286,1606,o),
(211,1606,cs),
(127,1606,o),
(69,1537,o),
(78,1483,cs),
(88,1427,o),
(167,1435,o),
(215,1435,cs),
(265,1436,o),
(292,1426,o),
(299,1483,cs)
);
},
{
closed = 1;
nodes = (
(469,1553,o),
(398,1581,o),
(356,1579,cs),
(313,1579,o),
(266,1557,o),
(274,1513,cs),
(282,1467,o),
(351,1473,o),
(395,1473,cs),
(439,1473,o),
(469,1466,o),
(469,1513,cs)
);
}
);
width = 1054;
}
);
unicode = 55;
},
{
glyphname = eight;
lastChange = "2023-03-10 06:14:29 +0000";
layers = (
{
layerId = "5FFCF0B5-D422-4BE5-8BC5-6DA1EDB7DC6B";
shapes = (
{
closed = 1;
nodes = (
(927,75,o),
(1040,264,o),
(1040,389,qs),
(1040,545,o),
(867,759,o),
(720,793,q),
(843,827,o),
(986,1016,o),
(986,1152,qs),
(986,1267,o),
(887,1436,o),
(708,1530,o),
(587,1530,qs),
(467,1530,o),
(287,1436,o),
(188,1267,o),
(188,1152,qs),
(188,1016,o),
(331,827,o),
(454,793,q),
(308,759,o),
(135,544,o),
(135,388,qs),
(135,262,o),
(248,74,o),
(451,-30,o),
(587,-30,qs),
(723,-30,o)
);
},
{
closed = 1;
nodes = (
(233,1003,o),
(233,1152,qs),
(233,1302,o),
(429,1488,o),
(587,1488,qs),
(745,1488,o),
(941,1302,o),
(941,1152,qs),
(941,1003,o),
(745,818,o),
(587,818,qs),
(429,818,o)
);
},
{
closed = 1;
nodes = (
(283,107,o),
(180,276,o),
(180,388,qs),
(180,501,o),
(282,671,o),
(466,766,o),
(587,766,qs),
(709,766,o),
(892,671,o),
(995,501,o),
(995,388,qs),
(995,276,o),
(892,107,o),
(709,12,o),
(587,12,qs),
(466,12,o)
);
},
{
closed = 1;
nodes = (
(333,714,o),
(402,741,o),
(455,757,cs),
(502,771,o),
(569,765,o),
(569,774,cs),
(569,790,o),
(528,789,o),
(469,782,cs),
(414,775,o),
(335,747,o),
(334,729,cs)
);
},
{
closed = 1;
nodes = (
(574,767,o),
(622,771,o),
(641,768,cs),
(661,765,o),
(689,759,o),
(686,767,cs),
(683,776,o),
(629,785,o),
(610,785,cs),
(596,785,o),
(574,785,o),
(574,774,cs)
);
},
{
closed = 1;
nodes = (
(711,756,o),
(750,749,o),
(771,739,cs),
(802,724,o),
(840,705,o),
(844,713,cs),
(852,729,o),
(779,764,o),
(753,773,cs),
(736,779,o),
(711,779,o),
(711,766,cs)
);
},
{
closed = 1;
nodes = (
(505,797,o),
(554,802,o),
(572,802,cs),
(592,802,o),
(613,801,o),
(613,808,cs),
(613,816,o),
(576,816,o),
(548,816,cs),
(537,816,o),
(493,827,o),
(500,810,cs)
);
},
{
closed = 1;
nodes = (
(574,796,o),
(626,793,o),
(644,793,cs),
(672,793,o),
(741,811,o),
(738,824,cs),
(735,835,o),
(685,824,o),
(663,818,cs),
(648,814,o),
(574,823,o),
(574,808,cs)
);
}
);
width = 1175;
},
{
layerId = "EE4C669A-5906-4A8E-97F5-76C9C8877141";
shapes = (
{
closed = 1;
nodes = (
(927,75,o),
(1040,264,o),
(1040,389,qs),
(1040,545,o),
(867,759,o),
(720,793,q),
(843,827,o),
(986,1016,o),
(986,1152,qs),
(986,1267,o),
(887,1436,o),
(708,1530,o),
(587,1530,qs),
(467,1530,o),
(287,1436,o),
(188,1267,o),
(188,1152,qs),
(188,1016,o),
(331,827,o),
(454,793,q),
(308,759,o),
(135,544,o),
(135,388,qs),
(135,262,o),
(248,74,o),
(451,-30,o),
(587,-30,qs),
(723,-30,o)
);
},
{
closed = 1;
nodes = (
(233,1003,o),
(233,1152,qs),
(233,1302,o),
(429,1488,o),
(587,1488,qs),
(745,1488,o),
(941,1302,o),
(941,1152,qs),
(941,1003,o),
(745,818,o),
(587,818,qs),
(429,818,o)
);
},
{
closed = 1;
nodes = (
(283,107,o),
(180,276,o),
(180,388,qs),
(180,501,o),
(282,671,o),
(466,766,o),
(587,766,qs),
(709,766,o),
(892,671,o),
(995,501,o),
(995,388,qs),
(995,276,o),
(892,107,o),
(709,12,o),
(587,12,qs),
(466,12,o)
);
},
{
closed = 1;
nodes = (
(337,591,o),
(399,564,o),
(453,564,cs),
(520,564,o),
(582,613,o),
(571,699,cs),
(561,786,o),
(522,774,o),
(469,774,cs),
(414,772,o),
(351,766,o),
(344,677,cs)
);
},
{
closed = 1;
nodes = (
(583,694,o),
(631,691,o),
(649,696,cs),
(673,702,o),
(689,725,o),
(678,753,cs),
(666,783,o),
(626,787,o),
(608,781,cs),
(595,777,o),
(569,769,o),
(577,724,cs)
);
},
{
closed = 1;
nodes = (
(672,602,o),
(725,581,o),
(747,585,cs),
(778,590,o),
(808,630,o),
(810,688,cs),
(812,750,o),
(769,770,o),
(746,764,cs),
(729,760,o),
(695,752,o),
(681,662,cs)
);
},
{
closed = 1;
nodes = (
(506,800,o),
(554,797,o),
(572,802,cs),
(596,808,o),
(612,831,o),
(601,859,cs),
(589,889,o),
(569,900,o),
(531,887,cs),
(520,883,o),
(492,875,o),
(500,830,cs)
);
},
{
closed = 1;
nodes = (
(555,766,o),
(621,801,o),
(644,793,cs),
(692,776,o),
(707,807,o),
(718,845,cs),
(731,884,o),
(694,920,o),
(671,929,cs),
(655,936,o),
(612,952,o),
(595,897,cs)
);
}
);
width = 1175;
}
);
unicode = 56;
},
{
glyphname = nine;
lastChange = "2023-03-10 06:16:24 +0000";
layers = (
{
layerId = "5FFCF0B5-D422-4BE5-8BC5-6DA1EDB7DC6B";
shapes = (
{
closed = 1;
nodes = (
(758,316,o),
(913,586,o),
(998,872,o),
(998,1011,qs),
(998,1170,o),
(888,1403,o),
(687,1530,o),
(551,1530,qs),
(419,1530,o),
(218,1413,o),
(105,1209,o),
(105,1076,qs),
(105,944,o),
(217,741,o),
(413,625,o),
(540,625,qs),
(684,625,o),
(902,778,o),
(954,911,q),
(930,743,o),
(778,415,o),
(543,133,o),
(395,33,q),
(418,0,l),
(546,84,o)
);
},
{
closed = 1;
nodes = (
(250,772,o),
(149,956,o),
(149,1074,qs),
(149,1194,o),
(252,1381,o),
(431,1488,o),
(544,1488,qs),
(658,1488,o),
(838,1380,o),
(943,1195,o),
(943,1078,qs),
(943,962,o),
(837,775,o),
(655,667,o),
(540,667,qs),
(427,667,o)
);
},
{
closed = 1;
nodes = (
(934,1108,o),
(954,1044,o),
(954,1030,cs),
(954,1007,o),
(925,940,o),
(954,949,cs),
(991,960,o),
(991,1013,o),
(991,1047,cs),
(991,1071,o),
(987,1108,o),
(954,1108,cs)
);
},
{
closed = 1;
nodes = (
(812,492,o),
(760,400,o),
(760,392,cs),
(760,384,o),
(772,373,o),
(777,373,cs),
(787,373,o),
(817,426,o),
(823,439,cs),
(831,456,o),
(857,486,o),
(826,490,cs)
);
},
{
closed = 1;
nodes = (
(440,61,o),
(414,38,o),
(417,30,cs),
(421,20,o),
(427,23,o),
(441,25,cs),
(461,28,o),
(516,76,o),
(544,102,cs),
(560,116,o),
(534,129,o),
(480,90,cs)
);
}
);
width = 1103;
},
{
layerId = "EE4C669A-5906-4A8E-97F5-76C9C8877141";
shapes = (
{
closed = 1;
nodes = (
(758,316,o),
(913,586,o),
(998,872,o),
(998,1011,qs),
(998,1170,o),
(888,1403,o),
(687,1530,o),
(551,1530,qs),
(419,1530,o),
(218,1413,o),
(105,1209,o),
(105,1076,qs),
(105,944,o),
(217,741,o),
(413,625,o),
(540,625,qs),
(684,625,o),
(902,778,o),
(954,911,q),
(930,743,o),
(778,415,o),
(543,133,o),
(395,33,q),
(418,0,l),
(546,84,o)
);
},
{
closed = 1;
nodes = (
(250,772,o),
(149,956,o),
(149,1074,qs),
(149,1194,o),
(252,1381,o),
(431,1488,o),
(544,1488,qs),
(658,1488,o),
(838,1380,o),
(943,1195,o),
(943,1078,qs),
(943,962,o),
(837,775,o),
(655,667,o),
(540,667,qs),
(427,667,o)
);
},
{
closed = 1;
nodes = (
(833,1078,o),
(824,988,o),
(846,966,cs),
(868,944,o),
(900,946,o),
(929,955,cs),
(966,966,o),
(973,1013,o),
(973,1047,cs),
(973,1071,o),
(953,1115,o),
(881,1092,cs)
);
},
{
closed = 1;
nodes = (
(803,473,o),
(771,401,o),
(783,377,cs),
(795,352,o),
(823,345,o),
(849,345,cs),
(882,345,o),
(901,382,o),
(910,410,cs),
(916,430,o),
(912,472,o),
(846,473,cs)
);
},
{
closed = 1;
nodes = (
(416,176,o),
(373,110,o),
(381,84,cs),
(389,58,o),
(416,46,o),
(441,42,cs),
(474,37,o),
(498,71,o),
(512,97,cs),
(521,116,o),
(523,158,o),
(458,169,cs)
);
}
);
width = 1103;
}
);
unicode = 57;
},
